<?xml version="1.0" encoding="UTF-8"?>
<svg id="Layer_1" data-name="Layer 1" xmlns="http://www.w3.org/2000/svg" width="372" height="17.86" viewBox="0 0 372 17.86">
  <path d="M13.68,11.18c0,1.02-.18,1.95-.53,2.77-.35.82-.83,1.52-1.44,2.1s-1.33,1.02-2.16,1.33-1.74.47-2.71.47-1.88-.16-2.71-.47-1.56-.76-2.17-1.33c-.62-.58-1.1-1.28-1.44-2.1S0,12.2,0,11.18V.43h3.02v10.66c0,.42.06.85.19,1.31.13.46.34.88.64,1.26.3.38.69.7,1.18.95s1.09.37,1.81.37,1.32-.12,1.81-.37.88-.56,1.18-.95c.3-.38.51-.8.64-1.26s.19-.89.19-1.31V.43h3.02v10.75Z" fill="#003b17"/>
  <path d="M17.4.43h6.7c1.12,0,2.2.17,3.24.52,1.04.34,1.96.87,2.76,1.57s1.44,1.59,1.92,2.65c.48,1.06.72,2.32.72,3.76s-.28,2.72-.83,3.78c-.55,1.06-1.26,1.94-2.14,2.64-.87.7-1.84,1.22-2.9,1.56s-2.11.52-3.13.52h-6.34s0-17,0-17ZM22.68,14.69c.94,0,1.84-.11,2.68-.32s1.57-.55,2.2-1.01,1.12-1.05,1.48-1.78c.36-.73.54-1.61.54-2.65s-.16-1.9-.48-2.64c-.32-.74-.76-1.33-1.33-1.79s-1.24-.79-2.02-1.01-1.63-.32-2.56-.32h-2.76v11.52h2.26-.01Z" fill="#003b17"/>
  <path d="M35.62.43h10.97v2.74h-7.94v4.46h7.49v2.74h-7.49v7.06h-3.02V.43h-.01Z" fill="#003b17"/>
  <path d="M48.48,9c0-1.36.22-2.6.67-3.71.45-1.11,1.07-2.06,1.86-2.84s1.74-1.39,2.83-1.81c1.1-.43,2.3-.64,3.62-.64,1.33-.02,2.54.18,3.65.59,1.1.41,2.06,1,2.86,1.79.8.78,1.42,1.73,1.87,2.83.45,1.1.67,2.34.67,3.7s-.22,2.54-.67,3.62c-.45,1.09-1.07,2.02-1.87,2.81-.8.78-1.75,1.4-2.86,1.84s-2.32.67-3.65.68c-1.31,0-2.52-.21-3.61-.64-1.1-.42-2.04-1.02-2.83-1.8-.79-.78-1.41-1.71-1.86-2.8s-.67-2.3-.67-3.62h-.01ZM51.65,8.81c0,.91.14,1.75.42,2.52.28.77.68,1.43,1.19,1.99s1.12,1,1.84,1.32c.71.32,1.51.48,2.39.48s1.68-.16,2.4-.48,1.34-.76,1.85-1.32c.51-.56.91-1.22,1.19-1.99.28-.77.42-1.61.42-2.52,0-.85-.14-1.64-.42-2.38-.28-.74-.68-1.38-1.19-1.93-.51-.55-1.13-.98-1.85-1.3-.72-.31-1.52-.47-2.4-.47s-1.68.16-2.39.47-1.32.74-1.84,1.3c-.51.55-.91,1.2-1.19,1.93-.28.74-.42,1.53-.42,2.38Z" fill="#003b17"/>
  <path d="M69.38.43h5.9c.82,0,1.6.08,2.36.23s1.44.41,2.03.78,1.06.86,1.42,1.49.53,1.42.53,2.38c0,1.23-.34,2.26-1.02,3.1-.68.83-1.65,1.34-2.92,1.51l4.51,7.51h-3.65l-3.94-7.2h-2.21v7.2h-3.02V.43h0ZM74.76,7.63c.43,0,.86-.02,1.3-.06.43-.04.83-.14,1.19-.29s.65-.38.88-.7.34-.75.34-1.31c0-.5-.1-.9-.31-1.2-.21-.3-.48-.53-.82-.68s-.71-.25-1.12-.3-.8-.07-1.19-.07h-2.62v4.61s2.35,0,2.35,0Z" fill="#003b17"/>
  <path d="M92.83,4.08c-.32-.46-.75-.8-1.28-1.02-.54-.22-1.1-.32-1.69-.32-.35,0-.69.04-1.02.12-.33.08-.62.21-.89.38-.26.18-.48.4-.64.68-.16.28-.24.61-.24,1,0,.58.2,1.02.6,1.32s.9.57,1.49.79,1.24.44,1.94.65c.7.21,1.35.5,1.94.86.59.37,1.09.86,1.49,1.46.4.61.6,1.42.6,2.42,0,.91-.17,1.71-.5,2.39-.34.68-.79,1.24-1.36,1.69-.57.45-1.23.78-1.98,1.01-.75.22-1.54.34-2.38.34-1.06,0-2.07-.18-3.05-.53s-1.82-.94-2.52-1.78l2.28-2.21c.37.56.85,1,1.45,1.31s1.24.47,1.91.47c.35,0,.7-.05,1.06-.14.35-.1.67-.24.96-.43s.52-.44.7-.73c.18-.3.26-.64.26-1.02,0-.62-.2-1.1-.6-1.44s-.9-.62-1.49-.85c-.59-.23-1.24-.45-1.94-.66-.7-.21-1.35-.49-1.94-.85s-1.09-.84-1.49-1.44-.6-1.4-.6-2.41c0-.88.18-1.64.54-2.28s.83-1.17,1.42-1.6c.58-.42,1.25-.74,2-.95s1.52-.31,2.31-.31c.9,0,1.76.14,2.6.41.84.27,1.6.72,2.27,1.34,0,0-2.21,2.33-2.21,2.33Z" fill="#003b17"/>
  <path d="M98.28.43h3.02v7.2h.14l7.03-7.2h4.08l-7.94,7.85,8.47,9.14h-4.25l-7.37-8.35h-.17v8.35h-3.02V.43h.01Z" fill="#003b17"/>
  <path d="M121.82.43h11.26v2.74h-8.23v4.18h7.8v2.74h-7.8v4.61h8.66v2.74h-11.69s0-17.01,0-17.01Z" fill="#003b17"/>
  <path d="M136.56.43h4.61l4.54,11.9,4.58-11.9h4.56v16.99h-2.88V3.31h-.05l-5.16,14.11h-2.11l-5.16-14.11h-.05v14.11h-2.88V.43h0Z" fill="#003b17"/>
  <path d="M158.64.43h3.02v16.99h-3.02V.43Z" fill="#003b17"/>
  <path d="M165.38.43h3.02v14.26h7.22v2.74h-10.25V.43h0Z" fill="#003b17"/>
  <path d="M177.77.43h3.02v16.99h-3.02V.43Z" fill="#003b17"/>
  <path d="M184.51.43h11.26v2.74h-8.23v4.18h7.8v2.74h-7.8v4.61h8.66v2.74h-11.69V.43Z" fill="#003b17"/>
  <path d="M214.6,4.08c-.32-.46-.75-.8-1.28-1.02-.54-.22-1.1-.32-1.69-.32-.35,0-.69.04-1.02.12s-.62.21-.89.38c-.26.18-.48.4-.64.68s-.24.61-.24,1c0,.58.2,1.02.6,1.32.4.3.9.57,1.49.79.59.22,1.24.44,1.94.65s1.35.5,1.94.86c.59.37,1.09.86,1.49,1.46.4.61.6,1.42.6,2.42,0,.91-.17,1.71-.5,2.39-.34.68-.79,1.24-1.36,1.69-.57.45-1.23.78-1.98,1.01-.75.22-1.54.34-2.38.34-1.06,0-2.07-.18-3.05-.53s-1.82-.94-2.52-1.78l2.28-2.21c.37.56.85,1,1.45,1.31s1.24.47,1.91.47c.35,0,.7-.05,1.06-.14.35-.1.67-.24.96-.43s.52-.44.7-.73c.18-.3.26-.64.26-1.02,0-.62-.2-1.1-.6-1.44-.4-.34-.9-.62-1.49-.85-.59-.23-1.24-.45-1.94-.66s-1.35-.49-1.94-.85-1.09-.84-1.49-1.44-.6-1.4-.6-2.41c0-.88.18-1.64.54-2.28s.83-1.17,1.42-1.6c.58-.42,1.25-.74,2-.95s1.53-.31,2.31-.31c.9,0,1.76.14,2.6.41.84.27,1.6.72,2.27,1.34l-2.21,2.33Z" fill="#003b17"/>
  <path d="M225.55.43h2.62l7.32,16.99h-3.46l-1.58-3.89h-7.37l-1.54,3.89h-3.38L225.55.43ZM229.39,10.94l-2.62-6.91-2.66,6.91h5.28Z" fill="#003b17"/>
  <path d="M237.38.43h4.01l8.23,12.62h.05V.43h3.02v16.99h-3.84l-8.4-13.03h-.05v13.03h-3.02V.43Z" fill="#003b17"/>
  <path d="M256.48.43h4.01l8.23,12.62h.05V.43h3.02v16.99h-3.84l-8.4-13.03h-.05v13.03h-3.02V.43h0Z" fill="#003b17"/>
  <path d="M274.68,9c0-1.36.22-2.6.67-3.71s1.07-2.06,1.86-2.84c.79-.78,1.74-1.39,2.83-1.81C281.14.22,282.34,0,283.65,0c1.33-.02,2.54.18,3.65.59,1.1.41,2.06,1,2.86,1.79.8.78,1.42,1.73,1.87,2.83.45,1.1.67,2.34.67,3.7s-.22,2.54-.67,3.62c-.45,1.09-1.07,2.02-1.87,2.81-.8.78-1.75,1.4-2.86,1.84s-2.32.67-3.65.68c-1.31,0-2.52-.21-3.61-.64-1.1-.42-2.04-1.02-2.83-1.8-.79-.78-1.41-1.71-1.86-2.8s-.67-2.3-.67-3.62ZM277.84,8.81c0,.91.14,1.75.42,2.52.28.77.68,1.43,1.19,1.99s1.12,1,1.84,1.32c.71.32,1.51.48,2.39.48s1.68-.16,2.4-.48,1.34-.76,1.85-1.32c.51-.56.91-1.22,1.19-1.99.28-.77.42-1.61.42-2.52,0-.85-.14-1.64-.42-2.38-.28-.74-.68-1.38-1.19-1.93-.51-.55-1.13-.98-1.85-1.3-.72-.31-1.52-.47-2.4-.47s-1.68.16-2.39.47c-.71.31-1.32.74-1.84,1.3-.51.55-.91,1.2-1.19,1.93-.28.74-.42,1.53-.42,2.38Z" fill="#003b17"/>
  <path d="M295.65.43h4.61l4.54,11.9,4.58-11.9h4.56v16.99h-2.88V3.31h-.05l-5.16,14.11h-2.11l-5.16-14.11h-.05v14.11h-2.88V.43Z" fill="#003b17"/>
  <path d="M326.13,4.08c-.32-.46-.75-.8-1.28-1.02-.54-.22-1.1-.32-1.69-.32-.35,0-.69.04-1.02.12s-.62.21-.89.38c-.26.18-.48.4-.64.68s-.24.61-.24,1c0,.58.2,1.02.6,1.32s.9.57,1.49.79,1.24.44,1.94.65,1.35.5,1.94.86c.59.37,1.09.86,1.49,1.46.4.61.6,1.42.6,2.42,0,.91-.17,1.71-.5,2.39-.34.68-.79,1.24-1.36,1.69-.57.45-1.23.78-1.98,1.01-.75.22-1.54.34-2.38.34-1.06,0-2.07-.18-3.05-.53-.98-.35-1.82-.94-2.52-1.78l2.28-2.21c.37.56.85,1,1.45,1.31s1.24.47,1.91.47c.35,0,.7-.05,1.06-.14.35-.1.67-.24.96-.43s.52-.44.7-.73c.18-.3.26-.64.26-1.02,0-.62-.2-1.1-.6-1.44s-.9-.62-1.49-.85c-.59-.23-1.24-.45-1.94-.66s-1.35-.49-1.94-.85-1.09-.84-1.49-1.44-.6-1.4-.6-2.41c0-.88.18-1.64.54-2.28.36-.64.83-1.17,1.42-1.6.58-.42,1.25-.74,2-.95s1.52-.31,2.31-.31c.9,0,1.76.14,2.6.41.84.27,1.6.72,2.27,1.34l-2.21,2.33Z" fill="#003b17"/>
  <path d="M338.68.43h3.02v14.26h7.22v2.74h-10.25V.43h.01Z" fill="#003b17"/>
  <path d="M351.07.43h3.02v16.99h-3.02V.43Z" fill="#003b17"/>
  <path d="M355.84.43h3.48l4.63,12.84,4.78-12.84h3.26l-6.86,16.99h-2.62l-6.67-16.99h0Z" fill="#003b17"/>
</svg>