<?xml version="1.0" encoding="UTF-8"?>
<svg id="Layer_1" data-name="Layer 1" xmlns="http://www.w3.org/2000/svg" width="464.15" height="17.86" viewBox="0 0 464.15 17.86">
  <path d="M9.48,4.08c-.32-.46-.75-.8-1.28-1.02s-1.1-.32-1.69-.32c-.35,0-.69.04-1.02.12-.33.08-.62.21-.89.38-.26.18-.48.4-.64.68-.16.28-.24.61-.24,1,0,.58.2,1.02.6,1.32s.9.57,1.49.79c.59.22,1.24.44,1.94.65.7.21,1.35.5,1.94.86.59.37,1.09.86,1.49,1.46.4.61.6,1.42.6,2.42,0,.91-.17,1.71-.5,2.39-.34.68-.79,1.24-1.36,1.69-.57.45-1.23.78-1.98,1.01-.75.22-1.54.34-2.38.34-1.06,0-2.07-.18-3.05-.53-.98-.35-1.82-.94-2.52-1.78l2.28-2.21c.37.56.85,1,1.45,1.31.6.31,1.24.47,1.91.47.35,0,.7-.05,1.06-.14.35-.1.67-.24.96-.43.29-.19.52-.44.7-.73.18-.3.26-.64.26-1.02,0-.62-.2-1.1-.6-1.44s-.9-.62-1.49-.85c-.59-.23-1.24-.45-1.94-.66-.7-.21-1.35-.49-1.94-.85-.59-.36-1.09-.84-1.49-1.44s-.6-1.4-.6-2.41c0-.88.18-1.64.54-2.28.36-.64.83-1.17,1.42-1.6s1.25-.74,2-.95C5.26.11,6.03,0,6.82,0,7.71,0,8.58.14,9.42.41c.84.27,1.6.72,2.27,1.34l-2.21,2.33Z" fill="#003b17"/>
  <path d="M14.93.43h11.26v2.74h-8.23v4.18h7.8v2.74h-7.8v4.61h8.66v2.74h-11.69V.43Z" fill="#003b17"/>
  <path d="M36.77.43h4.61l4.54,11.9L50.5.43h4.56v16.99h-2.88V3.31h-.05l-5.16,14.11h-2.11l-5.16-14.11h-.05v14.11h-2.88V.43Z" fill="#003b17"/>
  <path d="M58.92.43h11.26v2.74h-8.23v4.18h7.8v2.74h-7.8v4.61h8.66v2.74h-11.69V.43Z" fill="#003b17"/>
  <path d="M73.58.43h5.9c.82,0,1.6.08,2.36.23s1.44.41,2.03.78c.59.37,1.06.86,1.42,1.49.35.62.53,1.42.53,2.38,0,1.23-.34,2.26-1.02,3.1-.68.83-1.65,1.34-2.92,1.51l4.51,7.51h-3.65l-3.94-7.2h-2.21v7.2h-3.02V.43ZM78.96,7.63c.43,0,.86-.02,1.3-.06.43-.04.83-.14,1.19-.29.36-.15.65-.38.88-.7.22-.31.34-.75.34-1.31,0-.5-.1-.9-.31-1.2-.21-.3-.48-.53-.82-.68-.34-.15-.71-.25-1.12-.3-.41-.05-.8-.07-1.19-.07h-2.62v4.61h2.35Z" fill="#003b17"/>
  <path d="M88.7.43h11.26v2.74h-8.23v4.18h7.8v2.74h-7.8v4.61h8.66v2.74h-11.69V.43Z" fill="#003b17"/>
  <path d="M109.56,9c0-1.36.22-2.6.67-3.71.45-1.11,1.07-2.06,1.86-2.84s1.74-1.39,2.83-1.81S117.22,0,118.53,0c1.33-.02,2.54.18,3.65.59,1.1.41,2.06,1,2.86,1.79s1.42,1.73,1.87,2.83c.45,1.1.67,2.34.67,3.7s-.22,2.54-.67,3.62c-.45,1.09-1.07,2.02-1.87,2.81s-1.75,1.4-2.86,1.84c-1.1.44-2.32.67-3.65.68-1.31,0-2.52-.21-3.61-.64s-2.04-1.02-2.83-1.8-1.41-1.71-1.86-2.8c-.45-1.09-.67-2.3-.67-3.62ZM112.73,8.81c0,.91.14,1.75.42,2.52.28.77.68,1.43,1.19,1.99.51.56,1.12,1,1.84,1.32.71.32,1.51.48,2.39.48s1.68-.16,2.4-.48c.72-.32,1.34-.76,1.85-1.32.51-.56.91-1.22,1.19-1.99.28-.77.42-1.61.42-2.52,0-.85-.14-1.64-.42-2.38-.28-.74-.68-1.38-1.19-1.93-.51-.55-1.13-.98-1.85-1.3-.72-.31-1.52-.47-2.4-.47s-1.68.16-2.39.47c-.71.31-1.32.74-1.84,1.3s-.91,1.2-1.19,1.93c-.28.74-.42,1.53-.42,2.38Z" fill="#003b17"/>
  <path d="M130.53.43h4.61l4.54,11.9,4.58-11.9h4.56v16.99h-2.88V3.31h-.05l-5.16,14.11h-2.11l-5.16-14.11h-.05v14.11h-2.88V.43Z" fill="#003b17"/>
  <path d="M159.79.43h11.26v2.74h-8.23v4.18h7.8v2.74h-7.8v4.61h8.66v2.74h-11.69V.43Z" fill="#003b17"/>
  <path d="M174.53.43h4.61l4.54,11.9,4.58-11.9h4.56v16.99h-2.88V3.31h-.05l-5.16,14.11h-2.11l-5.16-14.11h-.05v14.11h-2.88V.43Z" fill="#003b17"/>
  <path d="M196.61.43h3.02v16.99h-3.02V.43Z" fill="#003b17"/>
  <path d="M203.35.43h3.02v14.26h7.22v2.74h-10.25V.43Z" fill="#003b17"/>
  <path d="M215.73.43h3.02v16.99h-3.02V.43Z" fill="#003b17"/>
  <path d="M222.48.43h11.26v2.74h-8.23v4.18h7.8v2.74h-7.8v4.61h8.66v2.74h-11.69V.43Z" fill="#003b17"/>
  <path d="M252.57,4.08c-.32-.46-.75-.8-1.28-1.02-.54-.22-1.1-.32-1.69-.32-.35,0-.69.04-1.02.12-.33.08-.62.21-.89.38-.26.18-.48.4-.64.68-.16.28-.24.61-.24,1,0,.58.2,1.02.6,1.32.4.3.9.57,1.49.79.59.22,1.24.44,1.94.65s1.35.5,1.94.86c.59.37,1.09.86,1.49,1.46.4.61.6,1.42.6,2.42,0,.91-.17,1.71-.5,2.39-.34.68-.79,1.24-1.36,1.69-.57.45-1.23.78-1.98,1.01-.75.22-1.54.34-2.38.34-1.06,0-2.07-.18-3.05-.53-.98-.35-1.82-.94-2.52-1.78l2.28-2.21c.37.56.85,1,1.45,1.31.6.31,1.24.47,1.91.47.35,0,.7-.05,1.06-.14.35-.1.67-.24.96-.43.29-.19.52-.44.7-.73.18-.3.26-.64.26-1.02,0-.62-.2-1.1-.6-1.44-.4-.34-.9-.62-1.49-.85-.59-.23-1.24-.45-1.94-.66s-1.35-.49-1.94-.85c-.59-.36-1.09-.84-1.49-1.44-.4-.6-.6-1.4-.6-2.41,0-.88.18-1.64.54-2.28.36-.64.83-1.17,1.42-1.6s1.25-.74,2-.95c.75-.21,1.52-.31,2.3-.31.9,0,1.76.14,2.6.41.84.27,1.6.72,2.27,1.34l-2.21,2.33Z" fill="#003b17"/>
  <path d="M263.52.43h2.62l7.32,16.99h-3.46l-1.58-3.89h-7.37l-1.54,3.89h-3.38l7.39-16.99ZM267.36,10.94l-2.62-6.91-2.66,6.91h5.28Z" fill="#003b17"/>
  <path d="M275.35.43h4.01l8.23,12.62h.05V.43h3.02v16.99h-3.84l-8.4-13.03h-.05v13.03h-3.02V.43Z" fill="#003b17"/>
  <path d="M294.45.43h4.01l8.23,12.62h.05V.43h3.02v16.99h-3.84l-8.4-13.03h-.05v13.03h-3.02V.43Z" fill="#003b17"/>
  <path d="M312.64,9c0-1.36.22-2.6.67-3.71.45-1.11,1.07-2.06,1.86-2.84s1.74-1.39,2.83-1.81S320.31,0,321.62,0c1.33-.02,2.54.18,3.65.59,1.1.41,2.06,1,2.86,1.79s1.42,1.73,1.87,2.83c.45,1.1.67,2.34.67,3.7s-.22,2.54-.67,3.62c-.45,1.09-1.07,2.02-1.87,2.81s-1.75,1.4-2.86,1.84c-1.1.44-2.32.67-3.65.68-1.31,0-2.52-.21-3.61-.64s-2.04-1.02-2.83-1.8-1.41-1.71-1.86-2.8c-.45-1.09-.67-2.3-.67-3.62ZM315.81,8.81c0,.91.14,1.75.42,2.52.28.77.68,1.43,1.19,1.99.51.56,1.12,1,1.84,1.32.71.32,1.51.48,2.39.48s1.68-.16,2.4-.48c.72-.32,1.34-.76,1.85-1.32.51-.56.91-1.22,1.19-1.99.28-.77.42-1.61.42-2.52,0-.85-.14-1.64-.42-2.38-.28-.74-.68-1.38-1.19-1.93-.51-.55-1.13-.98-1.85-1.3-.72-.31-1.52-.47-2.4-.47s-1.68.16-2.39.47c-.71.31-1.32.74-1.84,1.3s-.91,1.2-1.19,1.93c-.28.74-.42,1.53-.42,2.38Z" fill="#003b17"/>
  <path d="M333.62.43h4.61l4.54,11.9,4.58-11.9h4.56v16.99h-2.88V3.31h-.05l-5.16,14.11h-2.11l-5.16-14.11h-.05v14.11h-2.88V.43Z" fill="#003b17"/>
  <path d="M364.1,4.08c-.32-.46-.75-.8-1.28-1.02-.54-.22-1.1-.32-1.69-.32-.35,0-.69.04-1.02.12-.33.08-.62.21-.89.38-.26.18-.48.4-.64.68-.16.28-.24.61-.24,1,0,.58.2,1.02.6,1.32.4.3.9.57,1.49.79.59.22,1.24.44,1.94.65s1.35.5,1.94.86c.59.37,1.09.86,1.49,1.46.4.61.6,1.42.6,2.42,0,.91-.17,1.71-.5,2.39-.34.68-.79,1.24-1.36,1.69-.57.45-1.23.78-1.98,1.01-.75.22-1.54.34-2.38.34-1.06,0-2.07-.18-3.05-.53-.98-.35-1.82-.94-2.52-1.78l2.28-2.21c.37.56.85,1,1.45,1.31.6.31,1.24.47,1.91.47.35,0,.7-.05,1.06-.14.35-.1.67-.24.96-.43.29-.19.52-.44.7-.73.18-.3.26-.64.26-1.02,0-.62-.2-1.1-.6-1.44-.4-.34-.9-.62-1.49-.85-.59-.23-1.24-.45-1.94-.66s-1.35-.49-1.94-.85c-.59-.36-1.09-.84-1.49-1.44-.4-.6-.6-1.4-.6-2.41,0-.88.18-1.64.54-2.28.36-.64.83-1.17,1.42-1.6s1.25-.74,2-.95c.75-.21,1.52-.31,2.3-.31.9,0,1.76.14,2.6.41.84.27,1.6.72,2.27,1.34l-2.21,2.33Z" fill="#003b17"/>
  <path d="M376.65.43h3.02v14.26h7.22v2.74h-10.25V.43Z" fill="#003b17"/>
  <path d="M389.04.43h3.02v16.99h-3.02V.43Z" fill="#003b17"/>
  <path d="M393.81.43h3.48l4.63,12.84,4.78-12.84h3.26l-6.86,16.99h-2.62l-6.67-16.99Z" fill="#003b17"/>
  <path d="M418.89.43h3.02v6.77h7.94V.43h3.02v16.99h-3.02v-7.49h-7.94v7.49h-3.02V.43Z" fill="#003b17"/>
  <path d="M436.67.43h11.26v2.74h-8.23v4.18h7.8v2.74h-7.8v4.61h8.66v2.74h-11.69V.43Z" fill="#003b17"/>
  <path d="M451.34.43h5.9c.82,0,1.6.08,2.36.23s1.44.41,2.03.78c.59.37,1.06.86,1.42,1.49.35.62.53,1.42.53,2.38,0,1.23-.34,2.26-1.02,3.1-.68.83-1.65,1.34-2.92,1.51l4.51,7.51h-3.65l-3.94-7.2h-2.21v7.2h-3.02V.43ZM456.71,7.63c.43,0,.86-.02,1.3-.06.43-.04.83-.14,1.19-.29.36-.15.65-.38.88-.7.22-.31.34-.75.34-1.31,0-.5-.1-.9-.31-1.2-.21-.3-.48-.53-.82-.68-.34-.15-.71-.25-1.12-.3-.41-.05-.8-.07-1.19-.07h-2.62v4.61h2.35Z" fill="#003b17"/>
</svg>