<?xml version="1.0" encoding="UTF-8"?>
<svg id="Layer_1" data-name="Layer 1" xmlns="http://www.w3.org/2000/svg" width="1523.5" height="230.72" viewBox="0 0 1523.5 230.72">
  <g>
    <path d="M0,3.6h87.66v35.64h-47.34v10.98h44.46v33.3h-44.46v11.88h50.4v35.64H0V3.6Z" fill="#ff88d4"/>
    <path d="M146.52,59.04l1.98,72h-39.96V3.6h56.04l23.07,68.58h.9L208.55,3.6h57.85v127.44h-41.76l1.26-71.64-1.08-.18-23.76,71.82h-30.24l-23.4-72s-.9,0-.9,0Z" fill="#ff88d4"/>
    <path d="M289.98,3.6h43.2v127.44h-43.2V3.6Z" fill="#ff88d4"/>
    <path d="M356.94,3.6h43.2v90.54h42.3v36.9h-85.5V3.6Z" fill="#ff88d4"/>
    <path d="M455.76,3.6h43.2v127.44h-43.2V3.6Z" fill="#ff88d4"/>
    <path d="M522.72,3.6h87.66v35.64h-47.34v10.98h44.46v33.3h-44.46v11.88h50.4v35.64h-90.72V3.6Z" fill="#ff88d4"/>
    <path d="M718.02,134.64c-5.16,0-10.23-.45-15.21-1.34-4.98-.9-9.78-2.21-14.4-3.94-4.62-1.73-8.97-3.76-13.05-6.09-4.08-2.33-7.74-4.92-10.98-7.79l26.1-28.36c3,3.24,6.99,6.12,11.97,8.64s10.11,3.78,15.39,3.78c2.4,0,4.59-.42,6.57-1.26,1.98-.84,2.97-2.4,2.97-4.69,0-1.2-.33-2.22-.99-3.07-.66-.84-1.83-1.71-3.51-2.61s-3.99-1.89-6.93-2.98c-2.94-1.08-6.63-2.34-11.07-3.79-4.32-1.44-8.46-3.15-12.42-5.14-3.96-1.98-7.47-4.42-10.53-7.3-3.06-2.89-5.49-6.34-7.29-10.37s-2.7-8.87-2.7-14.52c0-7.93,1.62-14.66,4.86-20.19s7.41-10.07,12.51-13.62c5.1-3.55,10.83-6.1,17.19-7.66s12.66-2.34,18.9-2.34c8.4,0,16.95,1.62,25.65,4.86,8.7,3.24,16.35,7.92,22.95,14.04l-26.64,27.18c-2.88-3.6-6.42-6.33-10.62-8.19-4.2-1.86-7.98-2.79-11.34-2.79-3.12,0-5.64.45-7.56,1.35-1.92.9-2.88,2.37-2.88,4.41,0,1.92.99,3.36,2.97,4.32s5.19,2.16,9.63,3.6c4.56,1.44,9.36,3.12,14.4,5.04,5.04,1.92,9.69,4.41,13.95,7.47,4.26,3.06,7.77,6.81,10.53,11.25s4.14,9.96,4.14,16.56c0,7.68-1.53,14.37-4.59,20.07s-7.08,10.44-12.06,14.22-10.59,6.6-16.83,8.46-12.6,2.79-19.08,2.79h0Z" fill="#ff88d4"/>
    <path d="M822.77,3.6h45.54l49.68,127.44h-46.62l-6.66-18.72h-40.5l-6.3,18.72h-45.36L822.77,3.6ZM844.91,48.06l-10.44,31.5h20.7s-10.26-31.5-10.26-31.5Z" fill="#ff88d4"/>
    <path d="M926.99,3.6h42.66l36.36,64.62h.72l-1.8-64.62h40.68v127.44h-43.74l-35.28-60.84h-.72l1.8,60.84h-40.68V3.6Z" fill="#ff88d4"/>
    <path d="M1069.37,3.6h42.66l36.36,64.62h.72l-1.8-64.62h40.68v127.44h-43.74l-35.28-60.84h-.72l1.8,60.84h-40.68V3.6Z" fill="#ff88d4"/>
    <path d="M1205.99,66.6c0-10.2,1.8-19.41,5.4-27.63,3.6-8.22,8.55-15.21,14.85-20.97,6.3-5.76,13.77-10.2,22.41-13.32S1266.65,0,1276.73,0s19.44,1.56,28.08,4.68,16.14,7.56,22.5,13.32,11.34,12.75,14.94,20.97c3.6,8.22,5.4,17.43,5.4,27.63s-1.8,19.5-5.4,27.9-8.58,15.57-14.94,21.51-13.86,10.53-22.5,13.77c-8.64,3.24-18,4.86-28.08,4.86s-19.44-1.62-28.08-4.86c-8.64-3.24-16.11-7.83-22.41-13.77s-11.25-13.11-14.85-21.51-5.4-17.7-5.4-27.9ZM1251.53,66.6c0,4.2.63,8.04,1.89,11.52,1.26,3.48,3,6.48,5.22,9s4.89,4.47,8.01,5.85,6.48,2.07,10.08,2.07,6.93-.69,9.99-2.07c3.06-1.38,5.73-3.33,8.01-5.85s4.05-5.52,5.31-9,1.89-7.32,1.89-11.52-.63-7.83-1.89-11.25-3.03-6.3-5.31-8.64-4.95-4.17-8.01-5.49-6.39-1.98-9.99-1.98-6.96.66-10.08,1.98-5.79,3.15-8.01,5.49c-2.22,2.34-3.96,5.22-5.22,8.64s-1.89,7.17-1.89,11.25Z" fill="#ff88d4"/>
    <path d="M1403.62,59.04l1.98,72h-39.96V3.6h56.04l23.07,68.58h.9l20-68.58h57.85v127.44h-41.76l1.26-71.64-1.08-.18-23.76,71.82h-30.24l-23.4-72s-.9,0-.9,0Z" fill="#ff88d4"/>
  </g>
  <rect x="1259.32" y="109.4" width="35" height="120" fill="#ff88d4"/>
  <rect x="1226.73" y="164.19" width="100" height="35" fill="#ff88d4"/>
  <g>
    <path d="M428.13,211.64h-4.64l3.4-10.56h4.04l-2.8,10.56ZM435.93,211.64h-4.64l3.4-10.56h4.04l-2.8,10.56Z" fill="#9a0019"/>
    <path d="M443.53,201.08h10.04c1.84,0,3.69.24,5.56.72s3.55,1.27,5.04,2.38c1.49,1.11,2.71,2.56,3.64,4.36.93,1.8,1.4,4.03,1.4,6.7,0,2.48-.47,4.61-1.4,6.4s-2.15,3.25-3.64,4.4c-1.49,1.15-3.17,1.99-5.04,2.54-1.87.55-3.72.82-5.56.82h-10.04v-28.32h0ZM452.77,225c1.31,0,2.61-.15,3.92-.46,1.31-.31,2.49-.83,3.54-1.56,1.05-.73,1.91-1.73,2.58-2.98.67-1.25,1-2.84,1-4.76,0-2.03-.33-3.68-1-4.96-.67-1.28-1.53-2.28-2.58-3s-2.23-1.21-3.54-1.48-2.61-.4-3.92-.4h-4.2v19.6h4.2Z" fill="#9a0019"/>
    <path d="M482.01,201.08h4.36l12.2,28.32h-5.76l-2.64-6.48h-12.28l-2.56,6.48h-5.64l12.32-28.32h0ZM488.41,218.6l-4.36-11.52-4.44,11.52h8.8Z" fill="#9a0019"/>
    <path d="M501.37,201.08h6.68l13.16,21.2h.08v-21.2h5.04v28.32h-6.4l-13.44-21.88h-.08v21.88h-5.04v-28.32h0Z" fill="#9a0019"/>
    <path d="M532.57,201.08h7.88l7.36,20.12h.12l7.28-20.12h7.92v28.32h-5v-22.76h-.08l-8.6,22.76h-3.52l-8.48-22.76h-.08v22.76h-4.8v-28.32h0Z" fill="#9a0019"/>
    <path d="M578.25,201.08h4.36l12.2,28.32h-5.76l-2.64-6.48h-12.28l-2.56,6.48h-5.64l12.32-28.32h0ZM584.65,218.6l-4.36-11.52-4.44,11.52h8.8Z" fill="#9a0019"/>
    <path d="M597.61,201.08h9.84c1.33,0,2.63.14,3.88.42s2.37.74,3.34,1.38c.97.64,1.75,1.48,2.34,2.52.59,1.04.88,2.31.88,3.8,0,2.05-.58,3.73-1.74,5.02s-2.74,2.17-4.74,2.62l7.56,12.56h-6.08l-6.56-12h-3.68v12h-5.04v-28.32h0ZM606.77,213.28c.72,0,1.44-.05,2.16-.16s1.37-.31,1.94-.6c.57-.29,1.05-.71,1.42-1.26.37-.55.56-1.25.56-2.1,0-.77-.17-1.41-.52-1.9s-.79-.89-1.32-1.18-1.14-.49-1.82-.6-1.34-.16-1.98-.16h-4.56v7.96h4.12Z" fill="#9a0019"/>
    <path d="M622.77,201.08h5.04v12.24h.12l11.84-12.24h6.8l-13.24,13.08,14.12,15.24h-7.08l-12.44-14.2h-.12v14.2h-5.04v-28.32h0Z" fill="#9a0019"/>
    <path d="M664.77,207c-.53-.69-1.29-1.27-2.26-1.74s-1.95-.7-2.94-.7c-.59,0-1.17.07-1.76.22s-1.12.37-1.6.68-.87.71-1.18,1.2c-.31.49-.46,1.09-.46,1.78,0,.64.13,1.19.4,1.64s.63.84,1.1,1.16,1.03.6,1.7.84c.67.24,1.4.48,2.2.72.91.29,1.85.63,2.82,1,.97.37,1.87.87,2.68,1.48s1.48,1.39,2,2.32c.52.93.78,2.09.78,3.48,0,1.52-.28,2.85-.84,3.98-.56,1.13-1.31,2.07-2.24,2.82s-2.03,1.31-3.28,1.68-2.57.56-3.96.56c-1.84,0-3.64-.34-5.4-1.02-1.76-.68-3.2-1.69-4.32-3.02l3.6-3.36c.69.96,1.62,1.72,2.78,2.28,1.16.56,2.3.84,3.42.84.59,0,1.19-.07,1.8-.22s1.17-.39,1.66-.74.89-.78,1.2-1.3.46-1.17.46-1.94-.17-1.37-.52-1.86c-.35-.49-.81-.92-1.4-1.28s-1.28-.67-2.08-.94-1.64-.55-2.52-.84c-.85-.27-1.71-.59-2.56-.96s-1.62-.87-2.3-1.48-1.23-1.37-1.66-2.26-.64-2.01-.64-3.34c0-1.44.3-2.68.9-3.72.6-1.04,1.39-1.9,2.36-2.58.97-.68,2.08-1.19,3.32-1.52s2.5-.5,3.78-.5c1.44,0,2.9.25,4.38.76s2.77,1.27,3.86,2.28l-3.28,3.6h0Z" fill="#9a0019"/>
    <path d="M683.29,201.08h18.28v4.4h-13.24v7.76h12.48v4.24h-12.48v11.92h-5.04v-28.32h0Z" fill="#9a0019"/>
    <path d="M704.85,215.16c0-2.27.38-4.31,1.14-6.14s1.81-3.38,3.16-4.66,2.95-2.27,4.8-2.96,3.87-1.04,6.06-1.04c1.73,0,3.36.21,4.88.64s2.89,1.04,4.12,1.84l3.4-3.72,1.96,1.72-3.32,3.64c1.36,1.31,2.41,2.85,3.14,4.64.73,1.79,1.1,3.8,1.1,6.04s-.38,4.23-1.14,6.04-1.82,3.37-3.18,4.68-2.97,2.33-4.84,3.08c-1.87.75-3.91,1.13-6.12,1.16-1.89,0-3.65-.26-5.26-.78s-3.06-1.29-4.34-2.3l-3.4,3.68-2-1.72,3.48-3.76c-1.17-1.23-2.07-2.71-2.7-4.44s-.94-3.61-.94-5.64h0ZM710.09,215.16c0,1.31.15,2.48.44,3.52.29,1.04.75,1.99,1.36,2.84l13.96-15.12c-.69-.53-1.53-.95-2.52-1.26s-2.08-.46-3.28-.46c-1.52,0-2.89.27-4.12.8s-2.27,1.27-3.14,2.2-1.53,2.04-2,3.32c-.47,1.28-.7,2.67-.7,4.16h0ZM730.05,215.16c0-1.36-.19-2.63-.56-3.8s-.95-2.23-1.72-3.16l-14.08,15.32c1.6,1.47,3.72,2.2,6.36,2.2,1.47,0,2.81-.26,4.04-.78s2.28-1.25,3.16-2.18,1.57-2.05,2.06-3.34.74-2.71.74-4.26h0Z" fill="#9a0019"/>
    <path d="M740.17,201.08h9.84c1.33,0,2.63.14,3.88.42s2.37.74,3.34,1.38c.97.64,1.75,1.48,2.34,2.52.59,1.04.88,2.31.88,3.8,0,2.05-.58,3.73-1.74,5.02s-2.74,2.17-4.74,2.62l7.56,12.56h-6.08l-6.56-12h-3.68v12h-5.04v-28.32h0ZM749.33,213.28c.72,0,1.44-.05,2.16-.16s1.37-.31,1.94-.6c.57-.29,1.05-.71,1.42-1.26.37-.55.56-1.25.56-2.1,0-.77-.17-1.41-.52-1.9s-.79-.89-1.32-1.18-1.14-.49-1.82-.6-1.34-.16-1.98-.16h-4.56v7.96h4.12Z" fill="#9a0019"/>
    <path d="M779.77,207c-.53-.69-1.29-1.27-2.26-1.74s-1.95-.7-2.94-.7c-.59,0-1.17.07-1.76.22s-1.12.37-1.6.68-.87.71-1.18,1.2c-.31.49-.46,1.09-.46,1.78,0,.64.13,1.19.4,1.64s.63.84,1.1,1.16,1.03.6,1.7.84c.67.24,1.4.48,2.2.72.91.29,1.85.63,2.82,1,.97.37,1.87.87,2.68,1.48s1.48,1.39,2,2.32c.52.93.78,2.09.78,3.48,0,1.52-.28,2.85-.84,3.98-.56,1.13-1.31,2.07-2.24,2.82s-2.03,1.31-3.28,1.68-2.57.56-3.96.56c-1.84,0-3.64-.34-5.4-1.02-1.76-.68-3.2-1.69-4.32-3.02l3.6-3.36c.69.96,1.62,1.72,2.78,2.28,1.16.56,2.3.84,3.42.84.59,0,1.19-.07,1.8-.22s1.17-.39,1.66-.74.89-.78,1.2-1.3.46-1.17.46-1.94-.17-1.37-.52-1.86c-.35-.49-.81-.92-1.4-1.28s-1.28-.67-2.08-.94-1.64-.55-2.52-.84c-.85-.27-1.71-.59-2.56-.96s-1.62-.87-2.3-1.48-1.23-1.37-1.66-2.26-.64-2.01-.64-3.34c0-1.44.3-2.68.9-3.72.6-1.04,1.39-1.9,2.36-2.58.97-.68,2.08-1.19,3.32-1.52s2.5-.5,3.78-.5c1.44,0,2.9.25,4.38.76s2.77,1.27,3.86,2.28l-3.28,3.6h0Z" fill="#9a0019"/>
    <path d="M793.37,205.48h-8.68v-4.4h22.4v4.4h-8.68v23.92h-5.04v-23.92h0Z" fill="#9a0019"/>
    <path d="M810.37,201.08h18.76v4.4h-13.72v7.2h13v4.24h-13v8h14.44v4.48h-19.48v-28.32h0Z" fill="#9a0019"/>
    <path d="M859.21,207c-.53-.69-1.29-1.27-2.26-1.74s-1.95-.7-2.94-.7c-.59,0-1.17.07-1.76.22s-1.12.37-1.6.68-.87.71-1.18,1.2c-.31.49-.46,1.09-.46,1.78,0,.64.13,1.19.4,1.64s.63.84,1.1,1.16,1.03.6,1.7.84c.67.24,1.4.48,2.2.72.91.29,1.85.63,2.82,1,.97.37,1.87.87,2.68,1.48s1.48,1.39,2,2.32c.52.93.78,2.09.78,3.48,0,1.52-.28,2.85-.84,3.98-.56,1.13-1.31,2.07-2.24,2.82s-2.03,1.31-3.28,1.68-2.57.56-3.96.56c-1.84,0-3.64-.34-5.4-1.02-1.76-.68-3.2-1.69-4.32-3.02l3.6-3.36c.69.96,1.62,1.72,2.78,2.28,1.16.56,2.3.84,3.42.84.59,0,1.19-.07,1.8-.22s1.17-.39,1.66-.74.89-.78,1.2-1.3.46-1.17.46-1.94-.17-1.37-.52-1.86c-.35-.49-.81-.92-1.4-1.28s-1.28-.67-2.08-.94-1.64-.55-2.52-.84c-.85-.27-1.71-.59-2.56-.96s-1.62-.87-2.3-1.48-1.23-1.37-1.66-2.26-.64-2.01-.64-3.34c0-1.44.3-2.68.9-3.72.6-1.04,1.39-1.9,2.36-2.58.97-.68,2.08-1.19,3.32-1.52s2.5-.5,3.78-.5c1.44,0,2.9.25,4.38.76s2.77,1.27,3.86,2.28l-3.28,3.6h0Z" fill="#9a0019"/>
    <path d="M872.81,205.48h-8.68v-4.4h22.4v4.4h-8.68v23.92h-5.04v-23.92h0Z" fill="#9a0019"/>
    <path d="M912.37,219c0,1.71-.29,3.25-.88,4.62s-1.39,2.54-2.4,3.5-2.21,1.7-3.6,2.22c-1.39.52-2.89.78-4.52.78s-3.13-.26-4.52-.78-2.59-1.26-3.62-2.22-1.83-2.13-2.4-3.5-.86-2.91-.86-4.62v-17.92h5.04v17.72c0,.83.11,1.65.32,2.46.21.81.57,1.54,1.06,2.18s1.15,1.16,1.96,1.56,1.82.6,3.02.6,2.21-.2,3.02-.6c.81-.4,1.47-.92,1.96-1.56s.85-1.37,1.06-2.18.32-1.63.32-2.46v-17.72h5.04v17.92Z" fill="#9a0019"/>
    <path d="M918.37,201.08h6.68l13.16,21.2h.08v-21.2h5.04v28.32h-6.4l-13.44-21.88h-.08v21.88h-5.04v-28.32h0Z" fill="#9a0019"/>
    <path d="M955.29,205.48h-8.68v-4.4h22.4v4.4h-8.68v23.92h-5.04v-23.92h0Z" fill="#9a0019"/>
    <path d="M972.29,201.08h5.04v12.24h.12l11.84-12.24h6.8l-13.24,13.08,14.12,15.24h-7.08l-12.44-14.2h-.12v14.2h-5.04v-28.32h0Z" fill="#9a0019"/>
    <path d="M996.33,201.08h5.64l7.8,21.8h.16l7.88-21.8h5.44l-11.36,28.32h-4.36l-11.2-28.32h0Z" fill="#9a0019"/>
    <path d="M1025.97,201.08h5.04v28.32h-5.04v-28.32h0Z" fill="#9a0019"/>
    <path d="M1037.25,201.08h6.68l13.16,21.2h.08v-21.2h5.04v28.32h-6.4l-13.44-21.88h-.08v21.88h-5.04v-28.32h0Z" fill="#9a0019"/>
    <path d="M1068.45,201.08h10.04c1.84,0,3.69.24,5.56.72,1.87.48,3.55,1.27,5.04,2.38s2.71,2.56,3.64,4.36,1.4,4.03,1.4,6.7c0,2.48-.47,4.61-1.4,6.4s-2.15,3.25-3.64,4.4-3.17,1.99-5.04,2.54c-1.87.55-3.72.82-5.56.82h-10.04v-28.32h0ZM1077.69,225c1.31,0,2.61-.15,3.92-.46,1.31-.31,2.49-.83,3.54-1.56s1.91-1.73,2.58-2.98c.67-1.25,1-2.84,1-4.76,0-2.03-.33-3.68-1-4.96-.67-1.28-1.53-2.28-2.58-3-1.05-.72-2.23-1.21-3.54-1.48-1.31-.27-2.61-.4-3.92-.4h-4.2v19.6h4.2Z" fill="#9a0019"/>
    <path d="M1099.01,201.08h18.76v4.4h-13.72v7.2h13v4.24h-13v8h14.44v4.48h-19.48v-28.32h0Z" fill="#9a0019"/>
    <path d="M1124.77,201.08h4.64l-3.4,10.56h-4.04l2.8-10.56ZM1132.57,201.08h4.64l-3.4,10.56h-4.04l2.8-10.56Z" fill="#9a0019"/>
  </g>
</svg>