<?xml version="1.0" encoding="UTF-8"?>
<svg id="Layer_1" data-name="Layer 1" xmlns="http://www.w3.org/2000/svg" width="1523.5" height="229.4" viewBox="0 0 1523.5 229.4">
  <g>
    <path d="M0,3.6h87.66v35.64h-47.34v10.98h44.46v33.3h-44.46v11.88h50.4v35.64H0V3.6Z" fill="#ff88d4"/>
    <path d="M146.52,59.04l1.98,72h-39.96V3.6h56.04l23.07,68.58h.9L208.55,3.6h57.85v127.44h-41.76l1.26-71.64-1.08-.18-23.76,71.82h-30.24l-23.4-72h-.9Z" fill="#ff88d4"/>
    <path d="M289.98,3.6h43.2v127.44h-43.2V3.6Z" fill="#ff88d4"/>
    <path d="M356.94,3.6h43.2v90.54h42.3v36.9h-85.5V3.6Z" fill="#ff88d4"/>
    <path d="M455.76,3.6h43.2v127.44h-43.2V3.6Z" fill="#ff88d4"/>
    <path d="M522.72,3.6h87.66v35.64h-47.34v10.98h44.46v33.3h-44.46v11.88h50.4v35.64h-90.72V3.6Z" fill="#ff88d4"/>
    <path d="M718.02,134.64c-5.16,0-10.23-.45-15.21-1.34-4.98-.9-9.78-2.21-14.4-3.94-4.62-1.73-8.97-3.76-13.05-6.09-4.08-2.33-7.74-4.92-10.98-7.79l26.1-28.36c3,3.24,6.99,6.12,11.97,8.64,4.98,2.52,10.11,3.78,15.39,3.78,2.4,0,4.59-.42,6.57-1.26,1.98-.84,2.97-2.4,2.97-4.69,0-1.2-.33-2.22-.99-3.07-.66-.84-1.83-1.71-3.51-2.61-1.68-.9-3.99-1.89-6.93-2.98-2.94-1.08-6.63-2.34-11.07-3.79-4.32-1.44-8.46-3.15-12.42-5.14-3.96-1.98-7.47-4.42-10.53-7.3-3.06-2.89-5.49-6.34-7.29-10.37s-2.7-8.87-2.7-14.52c0-7.93,1.62-14.66,4.86-20.19s7.41-10.07,12.51-13.62c5.1-3.55,10.83-6.1,17.19-7.66,6.36-1.56,12.66-2.35,18.9-2.35,8.4,0,16.95,1.62,25.65,4.86,8.7,3.24,16.35,7.92,22.95,14.04l-26.64,27.18c-2.88-3.6-6.42-6.33-10.62-8.19-4.2-1.86-7.98-2.79-11.34-2.79-3.12,0-5.64.45-7.56,1.35-1.92.9-2.88,2.37-2.88,4.41,0,1.92.99,3.36,2.97,4.32,1.98.96,5.19,2.16,9.63,3.6,4.56,1.44,9.36,3.12,14.4,5.04,5.04,1.92,9.69,4.41,13.95,7.47,4.26,3.06,7.77,6.81,10.53,11.25,2.76,4.44,4.14,9.96,4.14,16.56,0,7.68-1.53,14.37-4.59,20.07-3.06,5.7-7.08,10.44-12.06,14.22-4.98,3.78-10.59,6.6-16.83,8.46-6.24,1.86-12.6,2.79-19.08,2.79Z" fill="#ff88d4"/>
    <path d="M822.77,3.6h45.54l49.68,127.44h-46.62l-6.66-18.72h-40.5l-6.3,18.72h-45.36L822.77,3.6ZM844.91,48.06l-10.44,31.5h20.7l-10.26-31.5Z" fill="#ff88d4"/>
    <path d="M926.99,3.6h42.66l36.36,64.62h.72l-1.8-64.62h40.68v127.44h-43.74l-35.28-60.84h-.72l1.8,60.84h-40.68V3.6Z" fill="#ff88d4"/>
    <path d="M1069.37,3.6h42.66l36.36,64.62h.72l-1.8-64.62h40.68v127.44h-43.74l-35.28-60.84h-.72l1.8,60.84h-40.68V3.6Z" fill="#ff88d4"/>
    <path d="M1205.99,66.6c0-10.2,1.8-19.41,5.4-27.63,3.6-8.22,8.55-15.21,14.85-20.97,6.3-5.76,13.77-10.2,22.41-13.32,8.64-3.12,18-4.68,28.08-4.68s19.44,1.56,28.08,4.68c8.64,3.12,16.14,7.56,22.5,13.32,6.36,5.76,11.34,12.75,14.94,20.97,3.6,8.22,5.4,17.43,5.4,27.63s-1.8,19.5-5.4,27.9c-3.6,8.4-8.58,15.57-14.94,21.51-6.36,5.94-13.86,10.53-22.5,13.77-8.64,3.24-18,4.86-28.08,4.86s-19.44-1.62-28.08-4.86c-8.64-3.24-16.11-7.83-22.41-13.77-6.3-5.94-11.25-13.11-14.85-21.51-3.6-8.4-5.4-17.7-5.4-27.9ZM1251.53,66.6c0,4.2.63,8.04,1.89,11.52,1.26,3.48,3,6.48,5.22,9,2.22,2.52,4.89,4.47,8.01,5.85,3.12,1.38,6.48,2.07,10.08,2.07s6.93-.69,9.99-2.07c3.06-1.38,5.73-3.33,8.01-5.85,2.28-2.52,4.05-5.52,5.31-9,1.26-3.48,1.89-7.32,1.89-11.52s-.63-7.83-1.89-11.25-3.03-6.3-5.31-8.64c-2.28-2.34-4.95-4.17-8.01-5.49-3.06-1.32-6.39-1.98-9.99-1.98s-6.96.66-10.08,1.98c-3.12,1.32-5.79,3.15-8.01,5.49-2.22,2.34-3.96,5.22-5.22,8.64s-1.89,7.17-1.89,11.25Z" fill="#ff88d4"/>
    <path d="M1403.62,59.04l1.98,72h-39.96V3.6h56.04l23.07,68.58h.9l20-68.58h57.85v127.44h-41.76l1.26-71.64-1.08-.18-23.76,71.82h-30.24l-23.4-72h-.9Z" fill="#ff88d4"/>
  </g>
  <rect x="1259.32" y="109.4" width="35" height="120" fill="#ff88d4"/>
  <rect x="1259.23" y="131.68" width="35" height="100" transform="translate(1458.41 -1095.04) rotate(90)" fill="#ff88d4"/>
</svg>