<?xml version="1.0" encoding="UTF-8"?>
<svg xmlns="http://www.w3.org/2000/svg" width="861.03" height="979.36" viewBox="0 0 861.03 979.36">
  <g id="kort">
    <path d="M268.78,96.83c1.47-7.28,4.13-13.03,9.65-15.07,1.98-.73,3.75-2,5.11-3.62,1.99-2.36,3.26-5,3.81-7.92.94-5.38,2.83-10.18,6.19-14.11,1.19-1.39,2.16-2.96,2.74-4.69l1.07-3.2c.36-.94,1.39-1.59,3-2,7.46-2.13,20.09.22,25.46,0,5.62-.23,12.92-2.37,16.54-5,3.57-2.6,18.6-16.55,22-19,3.65-2.64,14.14-14.09,14-14,6.21-6.3,13.39-8.55,21.32-7.48,1.2.16,1.57,1.68.57,2.37-2.83,1.97-6.12,2.54-10.9,8.11-6,7-17.36,21.95-18,28-.64,6.05-2,24,0,28s5.72,7.21,7,11c1.26,14.91,1.91,29.91,2,45,1.18,5.96,2,3,6,16s-21,44-22,47,0,10-1,13-6.36,6.86-6,10c.36,3.11,1,12,0,15-.87,2.6-2.84,4.93-4.99,7.04-.82.8-2,1.11-3.11.8-4.16-1.15-12.62-5.86-15.9-8.85-3.69-3.35-5-2-8-8s-11-13-13-16-14,7-18,7-19-17-21-17-6,15-7,16c-.77.77-8,1-11,0s-5,0-5,0c0,0-13,7-17,7s-22-1-26,0-9,10-10,11-5.27,1.42-7,0c-1.57-1.29-11.91-9.14-15.65-11.98-.8-.61-1.9-.6-2.7.01l-9.51,7.31c-1.28.99-3.05,1.05-4.4.15l-2.6-1.73c-.71-.47-1.62-.53-2.38-.15l-6.48,3.24c-.19.09-.37.2-.55.31-3.15.99-6.1,2.79-8.89,5.16-.34.29-.75.39-1.14.35-.8-.1-1.27-.96-1.1-1.76.44-2.13.2-3.73-.61-4.9-.53-.77-1.53-1.11-2.43-.88-2.84.74-3.64,4.25-3.61,8.88,0,1.28-.48,2.51-1.38,3.41-2.14,1.31-3.94,2.92-5.39,4.83-.71.93-1.87,1.36-3.02,1.16-1.7-.3-3.25.09-4.66,1.15-.85.64-1.99.58-2.79-.12-.17-.15-.35-.28-.53-.41-1.55-1.06-3.62-1.05-5.27-.15-1.99,1.08-3.51,2.66-4.68,4.63-.82,1.38-1.22,2.97-1.22,4.58v4.4c0,.68-.16,1.36-.46,1.96-.22.44-.55.81-.92,1.14-1.44,1.29-2.65,2.92-3.73,4.77-.56.96-.72,2.09-.56,3.19.18,1.2.17,2.42,0,3.66s-.7,2.31-1.48,3.23c-.56.65-1.16,1.27-1.8,1.85-1.52,1.39-5.06.69-5.06.69-.24,0-.43.07-.57.25,0,0-1.24,1.53-1.43,1.75-2.53,4.57-5.38,7.32-9.21,10.52-1.13.94-1.79,2.34-1.79,3.81v13.86c0,.54-.06,1.08-.16,1.61-.46,1.75-.7,2.42-.8,2.9-.15.7.21,1.39.86,1.71,2.62,1.27,4.65,3.14,6.1,5.6.49.95,0,2-1,1-1.93-2.12-4.22-2.89-6-3-1.08-.06-1.03,0-2,0-1.51.1-2.61,1.15-3.49,2.3-.33.43-.49.97-.46,1.51.1,1.67.11,3.32.03,4.96-.03.67.48,1.23,1.15,1.23h.89c.88,0,1.1-.22,1.5-.62l.08-.08c.18-.18.46-.23.69-.11l1.07.54c.36.18.7.4.99.69s.52.56.72.85c.69.97,1.94,1.36,3.07.98,2.09-1.55,4.75-2.44,7.73-2.96,1.53-.27,3.13.01,4.46.81,4.32,2.59,8.57,8.05,8.57,8.89,0,1-1,3-2,2-.89-.89-4.99-6.1-7.27-5.49-.46.12-.67.66-.51,1.11.36,2.46,1.36,5.24,2.74,8.22.66,1.42.36,3.11-.79,4.17-1.86,1.72-4.16,3.03-6.76,4.09-1.34.55-2.88-.09-3.4-1.43-.64-1.64-1.17-3.33-1.62-5.05-.27-1.02-.88-1.92-1.73-2.53-3.28-2.34-6.17-5.3-8.72-8.77-.57-.77-1.23-1.47-2.02-2.01-10.65-7.29-13.23-24.44-22.92-34.31q-1-1-2,0c-3.85,3.85-5.05,16.32-6.8,30.38-.12.99-.62,1.88-1.33,2.58-1.37,1.35-2.2,2.92-2.63,4.68-.2.81.03,1.68.58,2.31l4.22,4.92c.63.73,1.06,1.62,1.25,2.57l.23,1.14c.14.68.41,1.31.79,1.87.7,1.01,1.93,1.52,3.16,1.45,1.51-.09,2.48.49,3.25,1.32.61.66,1.03,1.47,1.29,2.33.18.6.2,1.24.13,1.86-.27,2.49-.13,4.87.48,7.12.43,1.59,2.49,2.01,3.58.77,1.95-2.2,3.83-3.81,5.65-4.77.69-.36,1.5-.44,2.24-.21,6.6,2.05,12.79,6.07,18.68,11.54,1.26,1.17,3.22,1.14,4.44-.07l4.02-4.02c.31-.31.76.24.76.24,2.58,3.14,3.24,7.56,2.4,12.2v.03c-.28,1.49-1.28,2.75-2.65,3.39-1.9.88-3.2,1.97-3.97,3.25-.61,1.02-.02,2.34,1.13,2.65l8.47,2.31c.39.11.77.23,1.13.4,2.78,1.23,5.61,2.87,8.49,4.78,7.46,4.14,12.07-.32,12.99-15.87,0-.11,0-.22,0-.32v-4.79c0-.68.04-1.35.11-2.02.1-1.73.26-3.44.47-5.11.08-.64.07-1.27-.02-1.89-.23-1.57-1.09-3.02-2.34-4-1.83-1.44-3.31-3.32-4.52-5.56-.61-1.13-.87-2.46-.54-3.69.31-1.15,1.03-1.84,2.28-1.9,1.06-.06,1.99-.74,2.51-1.66,3.03-5.38,7.3-10.15,12.66-14.38,1.42-1.12,3.08-1.89,4.84-2.34,4.85-1.24,8.73-3.19,11.49-5.95,1.59-1.59,1.96-4.06.74-5.96s-3.25-3.08-5.91-3.43c-1.09-.14-1.8-1.07-1.57-2.14,1.25-5.88,7.99-11.06,16.78-15.98,2.38-1.59,4.35-.27,6.39,2.03.81.92,2.23.85,3.04-.07,1.09-1.25,2.35-2.09,3.76-2.56,1.01-.34,2.14.07,2.71.97,5.58,8.89,8.35,17.8,7.38,26.72-.13,1.16-.5,2.29-1.1,3.28-4.43,5.72-8.29,12.1-11.8,18.91-.92,1.79-1.47,3.76-1.5,5.77-.1,7.08,1.38,12.27,4.39,15.63,1.43,1.6,4.02,1.22,5.05-.65.24-.44.46-.9.66-1.38.76-1.84.54-3.91-.37-5.68-1.56-3.01-.08-5.41,4.67-7.14,1.83-.67,2.7-2.85,1.62-4.46-.53-.8-1.25-1.4-2.13-1.82-1.07-.51-1.69-1.68-1.34-2.81.42-1.42,1.16-2.35,2.31-2.65.74-.19,1.53.1,2.05.66.93,1.02,1.5,2.08,1.59,3.2.1,1.28.95,2.38,2.2,2.64,8.06,1.68,15.3,1.46,13.66,5.01-.12.27-.25.54-.33.82-.2,2.07-.63,3.78-1.23,5.23-.42,1.01-.66,2.1-.54,3.18.5,4.64,2.93,9.32,6.43,14.03,1.06,1.43,2.97,1.83,4.48,1.08.66-.32,1.34-.6,2.06-.67,4.8-.46,7.7-2.26,8.04-5.88.12-1.31-.26-2.62-.98-3.71l-1.67-2.51c-.78-1.16-2.39-1.4-3.47-.5l-2,1.67c-1.13.94-2.84.51-3.42-.85-.97-2.29-1.15-4.79-.57-7.5l5.49-19.6c.93-3.33,0-6.91-2.45-9.36l-3.99-3.99c-1.74-1.74-4.5-1.9-6.43-.38l-8.71,6.84c-.89.7-2.21.25-2.49-.85l-.03-.14c-.24-.97-.1-2,.4-2.86l8.54-14.76c.8-1.38.63-3.07-.33-4.25-.39-.48-.7-1.03-.97-1.59-.6-1.23-1.91-1.99-3.51-2.57-.96-.35-1.67-1.16-1.9-2.15-.3-2.84-.99-5.92-1.95-9.15-.48-1.61-.47-3.35.13-4.92,1.04-2.71,2.85-5.63,5.17-8.68,1.14-1.51.97-3.63-.36-4.97l-2.13-2.13c-.96-.96-1.64-2.17-1.97-3.49l-.74-2.95c-.51-2.04-.42-4.21.37-6.16,5.17-12.83,15.51-20.98,29.09-26.21,1.09-.42,2.09-1.04,2.94-1.84,5.07-4.81,10.48-4.94,16.19-.95,1.78,1.25,3.86,2.03,6.03,2.16,9.49.54,6.97,5.26.35,11.42-1.2,1.12-1.82,2.72-1.65,4.35.16,1.51.52,2.98,1.06,4.42s2.66,1.54,3.33.08c2.48-5.38,6.02-9.24,10.87-11.22,2.12-.86,3.64-2.79,4.01-5.05.86-5.27,3.35-9.2,7.73-11.57.62-.34,1.29-.59,1.97-.81,12.12-3.83,23.44-4.11,33.87-.36,1.18.42,2.42.37,3.49-.08,1.52-.63,2.39-2.18,2.5-3.82.12-1.76.71-3.06,1.58-4.07.73-.84,1.98-.97,2.87-.3,11.86,9.05,23.17,18.8,33.91,29.28,1.44,1.4,2.71,1.64,4.47,1.68.8.02,1.56.37,2.07.99v.02s.06.15.09.38c.11.97.03,1.95-.22,2.89-1.45,5.62-3.21,9.04-5.23,11.85-1.05,1.46-1.63,3.21-1.59,5.01.13,5.76,2.22,12.28,5.37,19.21.49,1.09.74,2.28.69,3.47l-.73,16.69c-.12,2.69,1,5.25,2.93,7.13,2.28,2.22,4.24,4.82,5.95,7.72.41.69-.12,1.56-.92,1.5-7.03-1.59-13.93-2.25-20.7-2.04-1.95.06-3.89-.33-5.69-1.09-4.11-1.75-7.7.07-11.07,3.53h0c-.75.78-1.89,1.12-2.91.78-5.92-2.01-12.91,2.62-20.15,8.71-1.69,1.42-3.7,2.41-5.87,2.86-5.04,1.06-7.95,2.34-9.18,3.81-.89,1.06-.56,2.66.64,3.36,6.02,3.51,12.39,2.84,19.06-1.31.47-.29.95-.57,1.45-.8,2.89-1.34,5.76-2.19,8.62-2.51,1.67-.19,3.18-1.01,4.22-2.34,2.43-3.13,5.28-5.55,8.66-7.09,1.14-.52,2.44-.61,3.63-.23,2.42.77,4.62,2.02,6.69,3.54,1.4,1.03,3.31.92,4.65-.19,1.13-.93,2.3-1.64,3.52-2.14,1.35-.56,2.89-.53,4.23.06,5.2,2.26,8.91,5.92,11.45,10.69,1.24,2.33,1.1,5.2-.41,7.36-2.06,2.93-4.98,5.18-8.46,6.99-2.17,1.13-4.07,2.74-5.59,4.66-3.43,4.31-6.01,9.25-7.96,14.67-.65,1.8-.96,3.7-.96,5.61v5.81c0,2.51-1.93,4.59-4.43,4.79l-4.42.35c-1.3.1-2.47.79-3.19,1.87l-.1.14c-.56.84-1.48,1.33-2.46,1.31h-.04c-.83-.02-1.6.43-2,1.15l-3.21,5.77c-.51.93.16,2.06,1.22,2.06,5.24.84,10.24,1.06,14.82.23.59-.11,1.16-.27,1.7-.52,1.53-.68,3.14-.66,4.06-1.98.46-.66,1.05-1.21,1.75-1.67,1.2-.78,2.72-.87,4.07-.38,4.38,1.59,7.95,1.94,10.31.44,1.21-.77,1.19-2.52,0-3.32-1.02-.69-1.94-1.41-2.75-2.16-1.46-1.35-2.51-3.1-3.05-5.02-2.78-9.83-1.45-17.59,6.09-22.23,1.74-1.07,3.93-1.24,5.78-.36,2.66,1.27,4.25,3.31,4.74,6.16.32,1.9,1.51,3.53,3.17,4.51,4.42,2.61,8.33,5.51,11.66,8.75,2.23,2.17,5.3,3.23,8.4,2.91,7.41-.76,14.79-.75,22.16.03,2.79.3,5.53-.79,7.35-2.93,2.82-3.31,5.85-5.24,9.11-5.69,2.34-.33,4.71.57,6.35,2.28,4.31,4.5,7.04,8.88,7.23,13.05.08,1.67,1.13,3.08,2.63,3.81,5.67,2.76,5.65,10.15,4.48,18.47-.12.82-.29,1.63-.55,2.42-.53,1.64-.87,3.35-.83,5.08.34,16.1-13.45,33.96-28.38,51.96-1.83,2.2-2.71,5.02-2.54,7.87.19,3.19.63,6.41,1.31,9.65.36,1.75.04,3.58-.88,5.11h0c-.61,1.01-2.12.92-2.58-.16-1.4-3.32-3.03-6.21-5.03-8.45-1.11-1.25-1.45-3.01-.83-4.57l.61-1.54c.18-.46.26-1.01.28-1.37.02-.23,0-.46-.07-.69-1.54-5.45-1.84-7.64-4.01-9.44-1.05-.87-2.55-.94-3.72-.23-4.16,2.52-7.52,5.98-10.17,10.27-1.27,2.06-1.35,4.65-.27,6.82,1.8,3.62,2.8,7.22,3,10.81.04.72.16,1.44.32,2.15.46,1.93.54,3.77.35,5.55-.15,1.41-1.48,2.38-2.87,2.12-3.23-.61-6.25-2.25-9.02-5.05-1.16-1.16-1.72-2.84-1.43-4.46s.96-2.9,2.13-3.99c1.27-1.18,1.82-2.97,1.61-4.69-.65-5.4-3.4-7.19-9.31-3.57-1.14.7-2.41,1.21-3.74,1.38-2.39.32-4.69.35-6.89.02-1.24-.19-2.29-1.09-2.6-2.3-.67-2.59.18-4.27,2.81-4.85,1.73-.39,3.17-1.52,3.9-3.13,1.88-4.16,4.4-4.02,7.48-.19.92,1.14,2.66,1.24,3.61.11,1.82-2.16.9-3.02-.1-7.02-.27-1.61.15-2.63,1.99-2.47,1.09.1,2.01-.81,2.01-1.9v-7.85c0-1.6-1.18-2.95-2.76-3.18l-1.31-.19c-1.12-.16-2.1-.75-2.76-1.59-.57-.73-.68-1.68-.53-2.6s-.08-1.94-.53-3.01c-.56-1.36-2.21-1.9-3.46-1.12-3.83,2.4-7.43,7.61-10.92,14.43-.44.87-.69,1.36-1.61,2.26-.22.21-.43.43-.63.66-2.69,3.14-5.44,5.91-8.27,8.03-1.36,1.02-2.31,2.51-2.72,4.16-1.91,7.66-7.74,14.91-15.08,22-.76.73-.73,1.95.07,2.64l3.93,3.37c1.04.89,1.87,2,2.43,3.24,3.14,6.09,5.75,9.83,7.34,15.11.62,2.04.88,4.16.89,6.29.02,4.69-.42,9.27-1.36,13.72-.26,1.22-.36,2.46-.29,3.69s.41,2.53.96,3.68c.64,1.34,1.1,2.67,1.37,3.97.41,1.98-.28,4.04-1.71,5.46-1.22,1.21-2.27,2.42-3.1,3.64-.58.85-.89,1.85-1.07,2.87-.49,2.86-2.47,5.55-6.63,7.99-.19.11-.36.25-.5.4-.63.67-.62,1.71-.12,2.49.83,1.3,1.41,2.52,1.71,3.66.84,3.22-2.37,5.97-5.46,4.76-1.8-.7-3.52-2.07-5.19-3.87-.45-.48-.91-.95-1.43-1.35-4.39-3.4-9.51-5.41-15.27-6.19-1.47-.2-2.98-.13-4.38.34-1.06.36-1.97.85-2.72,1.51-1.72,1.52-4,2.23-6.27,1.89-5.51-.83-10.19.4-14.24,3.19-1.05.72-.81,2.34.4,2.74,6.6,2.18,11.73,4.47,13.53,7.02.94,1.32,2.39,2.2,4.01,2.16,5.85-.12,14.06.85,17.69-4.07,1.02-1.39,2.68.28,2,2-1.87,6.14-7.76,11.43-10.95,16.32-.58.89-.33,2.07.57,2.63,1.79,1.11,3.34,2.31,4.58,3.63,1.01,1.08.68,2.8-.61,3.53-4.16,2.37-5.75,6.01-5.38,10.63.18,2.24-1.52,4.18-3.77,4.17-11.48-.03-21.12,1.29-24.43,7.26-.73,1.31-2.4,1.76-3.6.86-6.56-4.9-12.95-9.24-19.1-12.75-1.53-.88-3.19-1.52-4.92-1.87-9.09-1.86-16.21-1.44-20.71,2.01-.91.7-.78,2.12.23,2.67,6.69,3.7,13.7,5.67,21.06,5.88.72.02,1.4.25,1.98.65,1.05.72,2.17,1.34,3.4,1.66,6.02,1.54,7.62,5.67,7.2,10.99-.15,1.85,1.28,3.47,3.14,3.51,3.32.09,6.4.9,9.32,2.21,1.06.48,1.37,1.83.66,2.75-3.88,5.02-7.93,9.09-12.23,11.83-1.64,1.05-2.7,2.82-2.87,4.76-.19,2.22-.21,4.44-.05,6.67.13,1.8-1.5,3.2-3.28,2.88-3.36-.6-6.7-.2-10.03,1.1-1.31.51-2.79.35-3.94-.47-3.07-2.2-5.72-1.78-7.94,1.23-1.14,1.54-2.7,2.72-4.38,3.63-2.16,1.17-3.9,2.56-5.25,4.13-1.03,1.2-.56,3.02.93,3.56,5.38,1.94,11.1,2.26,17.08,1.32,1.93-.3,3.95.29,5.26,1.74.81.89,1.37,1.94,1.69,3.12.39,1.44-.43,2.92-1.82,3.47-3.77,1.47-7.06,3.73-9.9,6.7-1.88,1.96-2.49,4.82-1.53,7.36l.58,1.54c.58,1.54.59,3.25-.04,4.77-.67,1.61-1.14,3.33-1.47,5.12-.36,1.95,1.12,3.76,3.1,3.76h1.84c1.42,0,2.57,1.15,2.57,2.57v8.9c0,2.5-2.03,4.53-4.53,4.53h-.07c-1.54,0-3.01.61-4.1,1.7-2.42,3.5-4.82,6.76-7.17,8.66-1.54,1.24-3.8,1.13-5.16-.31-2.35-2.5-4.19-5.38-5.48-8.7-.28-.71-1.17-.98-1.78-.52-5.11,3.83-7.82,12.87-9.94,23.21-.36,1.78,1.39,3.26,3.07,2.58,3.01-1.22,5.77-2.72,8.15-4.62,3.02-2.24,6.41-2.72,10.04-2.08,2.32.41,4.7-.55,5.93-2.55,9.57-15.51,24.12-11.68,17.82,5.53-.88,2.41-.8,5.03.07,7.45.96,2.64.61,5.14-.91,7.52s-5.02,2.51-6.89.34c-1.3-1.5-2.58-2.73-3.83-3.63-1.63-1.18-3.81-1.29-5.53-.25-4.37,2.65-8.59,6.01-12.7,9.8-1.01.93-1.1,2.47-.24,3.54.34.43.62.87.83,1.33.63,1.36-.03,2.99-1.43,3.53-3.02,1.16-4.66,3.58-5.09,7.08-.18,1.47,1.37,2.53,2.7,1.87,4.5-2.24,7.66-2.38,8.9.49.28.64.56,1.29.94,1.88,2.16,3.31,1.4,6.95-.75,10.74-.4.71-.41,1.63.12,2.25,2.63,3.11-7.5,5.4-17.77,7.68-.84.19-1.04,1.32-.31,1.76,3.66,2.2,7.74,3.32,12.27,3.24,2.48-.05,4.9-1.07,6.52-2.96,1.48-1.73,3.33-3.01,5.49-3.91,1.09-.45,2.35-.13,3.16.74,2.57,2.75,4.63,5.58,5.9,8.53.58,1.36,1.75,2.38,3.15,2.86,9.59,3.27,18.34,8.25,26.19,15.05,1.44,1.25,3.68.83,4.57-.85,1.26-2.37,1.54-4.86.34-7.52-.62-1.38-1.83-2.44-3.29-2.79-2.12-.5-3.95-1.4-5.22-3.03-.8-1.02-1.95-1.68-3.23-1.88-3.65-.59-7.14-2.07-10.52-4.22-1.21-.77-1.57-2.36-.91-3.63,1.25-2.39,1.56-4.69.67-6.9-.82-2.45-3.51-1.02-6.21,2.42-1.3,1.66-3.82,1.65-5.1-.02l-.03-.04c-.5-.66-.63-1.54-.31-2.31,2.02-4.97,6.16-6.82,11.38-7.07,2.35-.12,4.68.37,6.78,1.44,5.65,2.87,14.29,9.25,23.03,15.75,1.41,1.05,2.98,1.89,4.66,2.4,7.18,2.17,10.24,6.7,10.78,12.68.22,2.41,1.37,4.66,3.19,6.25,6.45,5.68,8.95,12.16,7.12,19.51-.17.67-.43,1.32-.74,1.93-2.25,4.32-5.08,7.94-8.67,10.65-1.89,1.43-4.56,1.33-6.24-.33-3-2.95-6.4-4.58-10.12-5.11-.98-.14-1.7-1.08-1.49-2.04.27-1.19,1.15-1.96,2.93-2.1.63-.05,1.28.08,1.86.32l9.26,3.86c1.16.48,2.49-.24,2.66-1.48.65-4.55-3.83-8.27-14.17-11.06-2.02-.54-4.17-.38-6.07.5-1.54.72-3.15,1.7-4.79,2.86-1.35.94-3.23.63-4.15-.73-2.37-3.51-6.1-5.5-11.69-5.38-1.03.02-1.89.87-1.84,1.89.25,4.76,5.45,7.69,8.45,12.73.42.7.2,1.52-.35,1.96-.64.51-1.21,1.1-1.56,1.85-1.86,3.93-6.51,3.11-12.33.29-.86-.41-1.78-.68-2.72-.8l-3.18-.4c-1.97-.25-3.42-2.05-3.12-4.01.26-1.75.81-3.4,1.74-4.93.77-1.26.89-2.84.11-4.09-.18-.28-.38-.57-.6-.85-.68-.86-.59-2.11.25-2.83,2.28-1.94,3.45-3.89,3.09-5.88-.24-1.29-1.3-2.25-2.59-2.47-4.37-.73-7.91,4.64-11.32,10.99-.29.54-.62,1.05-1,1.53-.65.84-1.5,1.51-2.44,2.01-6.55,3.52-11.78,8-15.69,13.45-1,1.4-.83,3.34.41,4.54s2.31,2.44,3.3,3.8c.9,1.23,2.67,1.46,3.89.55,3.5-2.61,6.88-4.94,9.78-6.21,1.94-.85,4.12-.95,6.14-.34,7.55,3.69,16.01,6.2,25.11,7.86,2.17.4,4.2,1.33,5.95,2.66,3.61,2.73,7.51,6.69,11.54,11.21,1.15,1.29,2.82,1.87,4.43,1.68,1.33-.16,2.49-1,3.21-2.13,1.6-2.53,3.27-4.58,5.12-5.54,1.49-.77,3.31-.53,4.63.5,8.57,6.71,6.43,13.03-1.9,19.13-1.03.76-1.81,1.84-2.11,3.08-.25,1.04-.33,2.07-.24,3.12.17,2.04,2.2,3.39,4.2,2.93,7.09-1.62,12.29-1.26,13.53,3.26.35,1.3.23,2.67-.16,3.95-1.96,6.49-2.67,13.53-2.61,20.91.02,2-.61,3.96-1.75,5.6-1.48,2.12-3.16,3.98-5.09,5.56-1.26,1.03-2.87,1.54-4.5,1.54-42.03,2.28-89.05,1.99-139.02.17-2.52-.09-4.75-1.56-5.96-3.77-1.65-3.03-4.39-5.44-8.01-7.36-2.98-1.58-5.23-4.29-6.36-7.47-2.57-7.27-5.93-13.47-10.74-17.65-1.53-1.33-2.53-3.15-2.95-5.14-1.56-7.4-7.08-13.95-15.06-19.96-1.73-1.3-3.22-2.9-4.37-4.73-8.38-13.4-14.4-26.45-9.32-37.82.63-1.4.18-3.05-1.02-4.01l-2.81-2.25c-1.33-1.29-.47-11.28.65-21.04.19-1.7-.31-3.4-1.42-4.7-.14-.16-.27-.32-.4-.49-1.91-2.46-2.86-5.55-2.89-8.67-.07-5.84.14-11.58.65-17.2.22-2.46,1.13-4.8,2.59-6.79,4.89-6.71,8.36-13.18,8.82-19.11.46-4.63-.81-8.85-3.86-12.67-1.45-1.81-2.47-3.94-2.84-6.23-1.71-10.47-1.79-20.39.55-29.51.1-.4.25-.78.4-1.16,1.8-4.31,1.24-8.48-1.06-12.55-.8-1.43-1.23-3.04-1.36-4.67-1.27-16.63-7.22-28.25-23.11-29.23-2.83-.17-5.56-1.32-7.56-3.32-2.33-2.33-5.04-4.17-8.14-5.53-1.8-.79-2.94-2.57-3.06-4.54-.36-6.07-2.51-11.03-8.14-13.82-1.03-.51-1.58-1.64-1.31-2.75,3-12.06-.02-14.86-8.51-9.21-1.97,1.31-3.14,3.53-3.15,5.89s.13,4.68.44,6.8,1.48,3.97,3.19,5.23c6.57,4.88,9.58,9.6,8.57,14.14-.72,3.24-3.88,5.27-7.07,4.34-3.48-1.02-7.09-4.35-10.81-9.52-.83-1.15-1.52-2.4-1.97-3.74-.41-1.19-.72-2.39-.92-3.59-.34-2-1.74-3.64-3.69-4.19s-3.75-1.23-5.28-2.03c-5.68-2.96-7.74-9.92-4.88-15.64,1.41-2.82,3.65-5.41,6.32-7.89,2.35-2.19,3.51-5.35,3.28-8.55-.67-9.37,2.06-27.23,6.03-48.19.54-2.86,0-5.86-1.65-8.26-3.5-5.08-5.16-10.31-3.93-15.8.31-1.38.46-3.69.41-5.1-.71-19.14-2.39-37.55-5.27-55.08-.67-4.09-.4-8.31,1.14-12.16.73-1.83,1.69-3.52,2.9-5.07,2.06-2.66,3.23-5.89,3.09-9.25-1.69-40.87-1.44-80.69,1.25-119.17.35-9.74,2.21-18.24,6.5-24.75,1.48-2.25,2.56-4.75,2.92-7.41.82-6.05,2.58-11.55,5.68-16.26,1.33-2.01,2.11-4.33,2.38-6.73-1.08-7.88-1.23-14.88,1.07-19.59,1-2.04,1.53-4.28,1.82-6.53,1.77-13.72,8.82-21.97,18.45-27.55.36-.21.71-.42,1.05-.65,3.48-2.3,5.61-6.09,6.31-10.21.97-5.76,3.84-10.47,8.4-14.25,2.4-1.99,3.96-4.75,4.61-7.8.26-1.2.68-2.36,1.31-3.46.32-.56.63-1.12.88-1.71,5.14-11.96,10.99-20.04,17.76-23.12,1.6-.73,3.48-.53,4.94.45,3.74,2.51,7.43,4.58,11.09,6.31,4.52,2.14,9.78,1.93,14.21-.38,3.52-1.84,6.92-3.3,10.13-4.25s5.95-3.49,7.29-6.69c5.29-12.58,15.46-12.28,28.49-4.48,3.16,1.89,6.85,2.72,10.5,2.31,6.95-.78,13.27-1.02,18.01.11,2.99.71,6.12.24,8.84-1.16.49-.25.99-.5,1.51-.7,7.25-2.78,13.78-6.12,19.41-10.17,3.81-2.75,6.97-6.3,9.26-10.4l9.06-16.18c1.21-2.16,2.09-4.5,2.59-6.93,1.14-5.47,3.68-9.58,7.5-12.46,2.3-1.74,3.87-4.29,4.18-7.16.56-5.13,2.36-9.93,5.46-14.37.89-1.27,1.5-2.72,1.81-4.24Z" fill="#b1d55c" stroke="#003b17" stroke-miterlimit="10"/>
    <path d="M586.47,545.86c4.95-5.41,10.37-10.45,16.36-15.04,2.06-1.58,3.7-3.62,4.94-5.9,3.01-5.54,8.63-9.45,16.4-12.02,1.47-.49,2.84-1.25,4.02-2.26,7.3-6.26,14.33-11.81,20.6-15.25,4.51-2.48,10.12-1.99,14.07,1.3.86.72,1.68,1.46,2.46,2.22,1.89,1.86,4.27,3.14,6.89,3.57,3.34.56,6.28,2,8.84,4.3,1.66,1.5,3.67,2.56,5.87,2.94,22.69,3.91,20.14,18.57,8.66,37.04-1.44,2.31-2.22,4.96-2.22,7.68v2.14c0,2.79.98,5.45,2.63,7.7,5.57,7.59,7.24,18.31,6.57,30.9-.11,2.12.1,4.25.62,6.31,2.02,5.87,3.56,11.71,4.64,17.55.35,1.92,1.26,3.67,2.5,5.17,2.2,2.69,3.29,5.96,3.21,9.85-.03,1.55.46,3.08,1.28,4.4,5.89,9.47,6.66,15.25,1.98,17.09-1.96.77-3.51,2.31-4.11,4.33-.74,2.49-1.99,4.61-3.7,6.41-2.01,2.11-5.12,2.67-7.69,1.3-2.29-1.22-4.31-2.94-5.92-5.37-1.16-1.7-2.1-3.53-2.61-5.6-.58-2.35,0-4.84,1.41-6.8,1.63-2.25,3.08-4.52,4.29-6.8.53-1-.1-2.21-1.22-2.38s-2.11-.08-3.08.33c-1.07.45-2.29.04-2.75-1.02-1.55-3.54-3.24-6.48-5.1-8.7-1.08-1.3-3.02-1.55-4.37-.53-1.2.9-2.25,1.97-3.15,3.19-.78,1.06-.22,2.57,1.05,2.91,5.89,1.57,7.67,3.42,7.51,5.41-.71,8.57-6.07,12.2-13.53,13.62-.58.11-1.15.27-1.71.47-1.58.57-2.86,1.76-3.74,3.19-3.68,6.01-10.39,10.69-18.29,14.84-2.69,1.41-4.63,3.96-5.22,6.94-.13.66-.23,1.33-.32,2-.28,2.3-1.41,4.41-3.25,5.82-.78.6-1.51,1.26-2.18,1.98-1.11,1.18-1.2,3-.25,4.32,3.39,4.68,7.06,8.49,11.07,11.27,2.34,1.62,5.15,2.36,7.99,2.35.82,0,1.62.03,2.38.11,2.94.3,5.04,2.1,7.7,3.85,5.92,4.3,10.97,9.63,15.46,15.65,1.48,1.98,2.45,4.32,2.68,6.78.28,3.03-.18,5.77-1.31,8.23-.8,1.75-1.45,3.57-1.68,5.48-.45,3.76-1.79,6.08-3.82,9.11-3.4,5.47-10.63,7.71-19.37,8.67-2.34.26-4.54,1.21-6.41,2.64-.73.56-1.47,1.09-2.21,1.57-1.75,1.14-3.71,1.9-5.7,2.53-3.97,1.26-7.4,4.35-10.58,8.32-1.07,1.34-1.54,3.07-1.32,4.77.65,4.96-.02,8.05-1.77,9.59-.93.82-2.32.81-3.23-.02-1.45-1.33-2.4-3.75-3.04-6.91-.17-.83-1.18-1.18-1.79-.59-1.23,1.2-2.6,2.15-4.13,2.85-.7.32-.92,1.19-.46,1.8,1.72,2.3,2.57,4.71,2.29,7.26-.08.76.53,1.4,1.28,1.29,4.75-.64,9.72-.9,14.86-.85,2.14.02,3.99,1.59,4.25,3.71.2,1.62.23,3.2.08,4.71-.07.72-.24,1.42-.49,2.08-.66,1.71-1.94,3.14-3.53,4.05-.58.33-1.11.69-1.61,1.06-2.18,1.64-2.97,4.55-2.19,7.17,1.56,5.26,3.94,9.8,7.28,13.5.98,1.08.98,2.73-.04,3.77-4.3,4.38-9.69,7.94-15.83,10.93-1.58.77-3.44.71-4.93-.2-3.58-2.17-6.5-5.55-8.81-10.09-.98-1.93-3.21-2.88-5.25-2.17-3.93,1.37-7.98,2.21-12.14,2.5-1.2.08-2.43.01-3.59-.31-2.39-.65-4.36-2.09-6-4.16-1.39-1.76-3.07-3.27-5.06-4.31-5.98-3.11-11.95-5.66-17.89-7.62-1.59-.52-2.81-1.95-2.8-3.63.01-1.04.43-2.06,1.28-3.05.47-.55,1.22-.78,1.92-.61,5.35,1.35,10.66,4.4,15.94,8.48,2.98,2.31,7.47.22,7.33-3.55,0-.03,0-.07,0-.1-.05-1.1-.86-2.02-1.93-2.28-.14-.03-.27-.07-.41-.11-1.54-.47-2.85-1.52-3.77-2.83-1.33-1.9-2.88-3.46-4.69-4.6-1.71-1.07-2.9-2.78-3.49-4.71-4.63-15.19-14.53-22.92-28.92-24.31-3.13-.3-6.04-1.74-8.29-3.94-7.29-7.1-14.43-3.93-21.52,3.22-2.32,2.34-5.75,3.38-8.89,2.41-6.18-1.91-7.71-9.83-6.95-20.7.22-3.22-1.12-6.31-3.59-8.38-6.24-5.2-10.16-10.67-8.28-16.81.4-1.3-.63-2.56-1.99-2.43-3.91.38-7.21-.43-9.98-2.3-1.02-.69-1.12-2.14-.19-2.96,2.18-1.91,6.37-4.37,12.33-7.32,2.81-1.38,4.63-4.25,4.56-7.38-.09-3.88-.98-7.62-2.87-11.19-.96-1.8-1.38-3.83-1.43-5.87-.17-7.31-2.16-13.54-6.2-18.58-1.16-1.45-1.42-3.49-.38-5.02.2-.29.44-.59.72-.88,1.97-2.05,2.85-4.92,2.07-7.64-1.57-5.45-5.52-10.51-10.95-15.34-.83-.74-1.58-1.56-2.27-2.42-2.78-3.48-6.06-5.64-10.11-5.72-.94-.02-1.87-.23-2.76-.54-3.02-1.06-5.33-2.66-7.02-4.77-.58-.73-.14-1.8.78-1.87,6.88-.56,14.79.21,23.25,1.68.86.15,1.4-.9.79-1.52-1.95-2.59-4.55-5.33-7.77-8.22-1.89-1.69-4.37-2.58-6.91-2.51-5.03.15-9.24-.49-12.29-2.24-3.2-1.8-5.19-3.9-5.8-6.34-.27-1.07-.04-2.18.5-3.14,1.74-3.07,4.57-4.35,8.8-3.33,1.43.35,2.71,1.15,3.7,2.25.89.98,1.84,1.9,2.86,2.75,1.98,1.66,4.81,1.85,7,.47,1.2-.76,2.46-1.37,3.76-1.81,2.56-.87,5.4-.59,7.71.81,11.38,6.89,20.74,5.09,28.4-3.98.61-.72,1.52-1.97,1.97-2.8.74-1.36,1.72-2.58,2.89-3.59,4.93-4.28,7.92-8.85,6.18-14.11-.46-1.38-1.72-3.15-1.97-4.17-.95-3.8,3.95-6.24,10.91-6.91.72-.07,1.44-.16,2.13-.36,8.09-2.26,12.13-8.36,12.85-17.59.19-2.45-1.16-4.77-3.35-5.91-3.87-2.03-7.45-4.08-10.6-6.17-1.99-1.32-4.3-2.07-6.67-2.29-12.75-1.14-17.74-5.79-17.07-12.99.2-2.13,2.58-3.31,4.41-2.2,5.34,3.25,12.16,7.38,20.82,10.48,2,.72,3.99,1.48,6.06,1.69,1.37.14,2.71.51,4.02.96,11.21,3.84,22.67,3.01,34.33-1.79,1.49-.61,3.21-.28,4.41.81,3.31,3.03,3.69,6.24.48,9.66-1,1.07-1.64,2.43-1.81,3.88-.21,1.81-.78,3.43-1.65,4.91-.62,1.05-2.09,1.11-2.81.13-1.02-1.39-1.92-3.22-2.74-5.33-.38-.97-1.65-1.22-2.34-.45-5.16,5.7-1.81,11.63,6.12,25.76,1.44,2.57.83,5.89-1.56,7.63-.03.02-.07.05-.1.07-.95.67-2.15.9-3.3.76-4.73-.58-8.26.72-10.92,3.34-1.1,1.08-1.49,2.71-1.01,4.17,1.41,4.25,3.7,5.1,7.31.81.06-.07.11-.14.16-.21,1.19-1.76,2.4-3.08,3.62-3.91,1.58-1.07,3.69-.84,5.06.49,2.7,2.62,4.09,6.02,4.35,10.09.18,2.68-1.6,5.12-4.21,5.78-2.83.72-6,1.18-9.38,1.47-1.03.09-1.45,1.37-.67,2.05,3.94,3.46,8.53,4.43,13.74,2.97,1.7-.48,3.53-.04,4.84,1.15,4.21,3.83,5.48,7.66,2.85,11.48-.62.9-.25,2.16.76,2.57,1.71.69,3.36.9,4.96.62,2.82-.5,4.31-3.65,3.16-6.28-2.02-4.63-2.9-9.48-2.5-14.58.11-1.37-.93-2.57-2.31-2.58-.21,0-.41,0-.62-.02-2.94-.16-5.45-2.35-5.95-5.25-.29-1.7-.86-3.37-1.68-5s-.77-3.54.11-5.1c1.11-1.98,2.78-3.44,5.05-4.32,1.17-.45,2.53-.26,3.51.53,1.04.84,1.86,1.99,2.46,3.42.44,1.06,1.84,1.34,2.68.55,3.07-2.91,6.43-4.8,10.3-5.04,1.03-.06,1.89-.81,1.99-1.84.49-5.08.56-10.2.22-15.38-.15-2.32-.92-4.6-2.36-6.43-1.34-1.7-2.16-4.19-3.29-7.28-.65-1.78-.67-3.79.18-5.48,1.14-2.28,3.09-2.52,5.94-.46.85.61,1.83,1.01,2.85,1.25,8.11,1.89,10.47,5.41,8.03,10.29-.51,1.02-.84,2.13-.9,3.27-.19,3.54-.08,7.27.6,11.34.26,1.57.74,3.11,1.43,4.55,3.77,7.93,6.13,17.16,7.77,27.07.3,1.83-.54,3.76-2.21,4.57s-3.26.23-5-1.62c-1.54-1.64-4.12-1.52-5.5.25-1.01,1.29-1.39,3.12-1.27,5.39.08,1.49,1.08,2.74,2.46,3.3,5.47,2.23,8.93,5.94,10.95,10.73.34.81,1.51.75,1.77-.09,2.32-7.73,2.86-16.52,2.3-25.96-.1-1.62-.47-3.21-1.03-4.73-2.35-6.37-4.38-12.83-6.07-19.38-.65-2.51-.57-5.15.27-7.6,1.14-3.34,1.74-6.97,1.79-10.89.02-1.89-.63-3.77-2-5.07-2.56-2.44-4.13-7.56-4.88-14.93-.18-1.78-1.77-3.1-3.53-2.77-2.73.51-5.62,2.07-8.6,4.28-1.67,1.24-3.6,2.13-5.66,2.4-3.43.46-6.61.06-9.53-1.17-1.56-.66-1.94-2.7-.79-3.95Z" fill="#b1d55c" stroke="#003b17" stroke-miterlimit="10"/>
    <path d="M654.12,846.05c2.5-3.52,3.49-7.45,2.88-11.8-.24-1.72-1.64-3.04-3.36-3.26-2.89-.37-5.27-1.11-6.78-2.44-1.28-1.13-1.27-3.14-.05-4.34,1.96-1.94,5.23-3.31,9.57-4.2,3-.61,6.08.61,7.91,3.06,1.29,1.73,2.43,3.36,3.33,4.83,1.22,1.99,3.44,3.12,5.77,2.92,7.27-.62,13.89-.19,18.61,3.31.93.69,2,1.14,3.14,1.33,13.25,2.26,14.2,20.79-.8,21.79-4.02.82-9.42-2.99-15.6-4.45-2.48-.59-5.11-.31-7.39.85-2.49,1.26-4.85,2.73-7.1,4.39s-4.06,4.16-5.05,6.89c-1.99,5.5-4.85,9.35-8.68,11.38-3.39,1.8-7.41,1.57-10.59-.57-1.13-.76-2.12-1.69-2.98-2.78-1.79-2.26-2.04-5.34-.76-7.92,1.44-2.92,2.38-6.07,2.93-9.39.16-.99.47-1.96.98-2.83,1.44-2.47,3.21-4.33,5.44-5.28.52-.22,1.07-.29,1.63-.21.46.07.92.18,1.38.34,2.04.71,4.32.15,5.57-1.61Z" fill="#b1d55c" stroke="#003b17" stroke-miterlimit="10"/>
    <path d="M622.21,872.88c7.62-1.63,13.85,3.36,19.4,11.64,1.21,1.81,1.43,4.12.6,6.14-3.73,9.07-15.28,27.88-25.75,45.36-2.1,3.5-3.22,7.49-3.27,11.57-.1,8.33.25,16.17,1.43,23.07.37,2.13-1.28,4.08-3.44,4.02-.16,0-.32-.01-.49-.02-4.04-.26-7.51-4.05-7.73-8.08-.1-1.86-.12-3.59.03-5.05.13-1.24-.3-2.47-1.2-3.34-1.23-1.18-2.31-2.41-3.22-3.7-1.84-2.62-2.53-5.95-1.49-8.98.24-.7.54-1.33.93-1.89.59-.86.81-1.94.47-2.93-.45-1.3-.43-2.82-.15-4.45.18-1.33.48-2.5.94-3.46.51-1.05.45-2.31-.13-3.32-1.36-2.38-2.2-5.19-2.59-8.35-.19-1.52.23-3.07,1.25-4.22,1.73-1.96,2.73-4.2,2.8-6.76.04-1.48-1.13-2.57-2.61-2.44-1.67.15-1.68-.36-3.26-1.23-.27-.15-.53-.3-.78-.47-5.4-3.79-9.02-9.28-11.62-15.74-.63-1.88-.9-3.46-.75-4.96.18-1.79-.34-3.59-1.57-4.9-2.46-2.61-4.49-5.59-6.17-8.88-1.14-2.23-1.7-4.73-1.49-7.22.57-6.83,4.28-9.05,11.07-6.76,1.16.39,2.45.09,3.35-.73,4.12-3.74,7.28-2.53,9.3,4.48.21.74.6,1.42,1.16,1.95,2.48,2.36,5.09,2.09,7.81-.55.84-.81,2.16-.89,3.1-.2,2.97,2.18,5.49,4.89,7.7,7.95,1.44,2,3.96,2.99,6.36,2.47Z" fill="#b1d55c" stroke="#003b17" stroke-miterlimit="10"/>
    <path d="M507.45,943.15c1.07-.18,2.17.25,2.72,1.19,0,0,0,.01.01.02.4.68.66,1.43.85,2.21.31,1.28.88,2.5,1.66,3.56,3.08,4.15,6.15,7.23,9.23,8.85,2.45,1.29,5.39,1.29,7.89.1,5.74-2.73,11.31-5.66,16.67-8.85,3.14-1.87,6.85-2.49,10.45-1.82,9.16,1.71,18.4,2.36,27.73,1.87.45-.02.91-.07,1.35-.16,3.91-.77,6.99-2.88,8.9-6.88.32-.67.55-1.4.59-2.15.21-3.87-2.83-7.08-7.58-9.95-1.08-.65-1.65-1.92-1.36-3.15s.92-2.66,1.75-4.11c.45-.77.95-1.52,1.54-2.19,1.64-1.85,2.21-3.88,1.96-6.04s-1.43-4.26-3.05-5.84c-5.33-5.21-10.18-14.08-14.94-23.62-.32-.64-.67-1.27-1.05-1.87-9.04-14.24-15.61-13.8-19.66,1.64-.42,1.61-1.93,2.77-3.59,2.6-3.32-.35-4.53,1.65-3.88,5.72.21,1.34-.7,2.35-2.06,2.37-.15,0-.29.01-.44.03-1.57.16-3.15-.27-4.46-1.15-7.26-4.88-13.37-10.34-18.08-16.53-1-1.32-2.17-2.49-3.44-3.55-8.49-7.1-17.04-14.3-23.2-17.51-2.43-1.27-5.31-1.28-7.79-.11-4.43,2.08-9.06,3.71-13.93,4.83-2.13.49-4.08,1.66-5.4,3.4-3.77,4.97-5.44,11.17-5.55,18.29-.04,2.74.92,5.44,2.74,7.49,1.69,1.9,4.04,3.82,6.81,5.75,1.15.81,1.13,2.51-.03,3.31-1.83,1.25-3.52,2.57-5.04,3.96-.82.75-2.1.67-2.84-.17-.98-1.13-2.29-2.67-3.81-4.47-.57-.67-1.61-.82-2.27-.24-1.99,1.76-2.16,6.34-1.32,12.49.44,3.21,2.27,6.11,5.08,7.71,2.15,1.22,4.29,2.09,6.43,2.58,2.6.6,5.02,1.84,6.87,3.75,3.89,4.02,8.72,5.71,14.19,5.8,1.69.03,3.35.51,4.74,1.47,4.39,3.05,4.03,2.84,9.64,7.92,1.07.97,2.45,1.6,3.89,1.57.35,0,.69-.04,1.04-.1Z" fill="#b1d55c" stroke="#003b17" stroke-miterlimit="10"/>
    <path d="M259.77,684.76c1.42-.95,2.11-2.63,1.89-4.33-.29-2.22-.02-4.54.68-6.93.8-2.58,2.27-4.21,4.16-5.22,1.49-.8,3.35-.31,4.32,1.07,1.46,2.07,2.9,4.04,4.23,5.59,1.86,2.16,4.62,3.3,7.46,3.13,7.25-.43,14.35-1.24,21.29-1.64,2.58-.15,5.12-.83,7.34-2.14,3.29-1.93,7.5-3.44,12.41-4.64,1.29-.31,2.5-.87,3.6-1.61,4.17-2.78,7.91-5.63,10.29-8.67.95-1.21,2.8-1.06,3.64.23.47.72.97,1.33,1.5,1.78,1.25,1.06,3.15.59,3.76-.93.8-2,1.21-4.64,2.06-6.92s3.17-3.34,5.43-2.77c5.97,1.51,9.81,5.98,12.51,12.02.7,1.56,1.59,3.02,2.71,4.31,3.76,4.3,6.28,8.75,7.54,13.33.8,2.92-.04,6.04-2.13,8.23-1.43,1.5-3.11,3.04-4.36,4.7-2.75,3.65-1.11,8.97,3.26,10.33.1.03.21.06.31.09,1.5.42,3.06-.24,4-1.48,2.99-3.95,7.62-7.68,13.01-11.3,1.74-1.17,2.74-3.16,2.6-5.24-.08-1.25-.23-2.52-.43-3.8-.25-1.61.25-3.22,1.32-4.45,2-2.32,3.16-5.32,3.18-9.25.33-3.89-1.23-7.59-4.23-11.13-.58-.69-.88-1.58-.83-2.47.08-1.29.52-2.39,1.53-3.22,1.15-.94,2.88-.61,3.7.62,2.51,3.75,4.91,6.83,7.23,9.46,1,1.13,1.6,2.55,1.72,4.05.21,2.7.6,5.27,1.25,7.67.33,1.22.87,2.36,1.53,3.44,3.18,5.2,4.8,10.39,5.09,15.58.57,6.61-4.11,9.17-10.37,10.52-1.13.24-1.55,1.63-.75,2.47,2.46,2.58,4.83,4.97,7.11,7.13,1.37,1.3,2.54,2.81,3.46,4.46,6.31,11.3,12.04,22.09,16.93,32.14.62,1.28.99,2.69.89,4.11-.07,1.06-.34,2.08-.83,3.07-.64,1.28-2.29,1.66-3.42.77-.59-.46-1.13-.96-1.62-1.53-.41-.48-1.18-.14-1.12.49,1.87,17.96,2.26,35.16.59,51.32-.59,5.67-3.22,10.94-7.48,14.74-.98.88-2.02,1.74-3.12,2.6-1.34,1.05-2.06,2.68-2,4.38.08,2.12-.25,3.84-.98,5.13s-2.71,1.33-3.49-.02c-1.54-2.66-3.26-4.82-5.16-6.49-2.7-2.37-6.62-2.76-9.84-1.16-5.01,2.49-9.68,4.58-13.65,5.78-3.18.97-6.56,1.06-9.8.29-1.83-.44-3.53-1.02-5.06-1.79s-3.28-.91-4.92-.41c-.57.17-1.13.31-1.66.4-2.3.39-4.64-.29-6.52-1.66-3.52-2.56-6.75-5.61-9.79-8.97-1.26-1.39-3.43-1.42-4.7-.04-.78.86-1.58,1.65-2.4,2.38-1.39,1.25-3.37,1.62-5.11.93-2.57-1.03-4.89-2.39-6.97-4.06-1.3-1.04-3.1-1.29-4.6-.56-2.31,1.12-4.56,1.35-6.72.48s-2.93-3.33-1.84-5.28c1.59-2.83,4.81-5.55,8.91-8.2,2.66-1.72,4.15-4.85,3.65-7.99-.25-1.58-.62-3.14-1.14-4.7-.63-1.91-2.81-2.79-4.63-1.95-5.05,2.32-9.35,1.33-12.84-3.26-.74-.97-1.71-1.73-2.85-2.18-1.93-.76-3.54-1.64-4.62-2.7-.58-.56-1.23-1.04-1.89-1.48-4.8-3.21-8.5-7.41-11.21-12.51-1.59-3-2.58-6.29-3.04-9.65-1.13-8.21-1.9-15.88-1.59-21.88.11-2.06-1.81-3.71-3.79-3.13-.02,0-.03,0-.05.01-3.11,1.43-5.45-.06-7.28-3.5-.69-1.3-.39-2.96.75-3.89.75-.61,1.77-1.18,3.01-1.7.91-.38,1.32-1.52.78-2.35-.12-.19-.21-.38-.26-.57-.95-1.09-1.16-2.24-.79-3.44.27-.88-.12-1.81-.98-2.12-2.22-.82-4.19-2.03-5.83-3.75-.88-.92-1.02-2.33-.29-3.37.46-.66.94-1.28,1.45-1.86.82-.93.79-2.33.02-3.3-2.86-3.61-5.86-6.93-9.03-9.9-1.64-1.53-1.87-4.06-.48-5.81,1.17-1.48,2.65-2.77,4.37-3.92Z" fill="#b1d55c" stroke="#003b17" stroke-miterlimit="10"/>
    <path d="M795.48,803.02l.6-5.38c.28-2.54,1.7-4.89,3.95-6.1,1.35-.72,2.92-1.14,4.7-1.28,1.58-.13,3.12.64,3.97,1.98,1.81,2.84,3.17,5.64,4.15,8.4,1.49,4.2,4.79,7.49,8.93,9.11s8.35,2.7,12.52,3.19c2.42.29,4.67,1.4,6.35,3.16,3.94,4.13,10.03,7.64,16.56,11.04,1.58.82,2.72,2.3,3.08,4.04.81,4-.4,7.61-3.03,10.95-1.67,2.13-2.53,4.77-2.46,7.47.08,2.84-.36,5.25-1.41,7.15-.64,1.16-1.79,1.95-3.11,2.08-4.28.41-10.24-3.17-16.52-7.49-2.78-1.92-6.04-3-9.41-3.24-11.68-.82-21.47-5.09-29.28-13.01-1.17-1.19-1.75-2.87-1.47-4.51.16-.93.4-1.78.72-2.56.64-1.51,1.02-3.12,1.02-4.76v-17.8c0-.81.05-1.63.13-2.44Z" fill="#b1d55c" stroke="#003b17" stroke-miterlimit="10"/>
    <path d="M337.62,851.9c2.76.98,4.29,2.64,6.59,6.14.59.89,1.85,2.02,2.79,2.52,4.97,2.68,6.98,4.64,8.35,9.71.55,2.04,2.71,3.31,4.71,2.6.28-.1.56-.19.85-.26,1.93-.51,3.88.83,4.24,2.79.27,1.47.4,2.93.38,4.38-.01.78.91,1.18,1.45.62.68-.7,1.37-1.32,2.07-1.83,1.65-1.2,3.92-1.11,5.53.14,3.08,2.4,4.52,3.81,6.76,7.51.82,1.67.82,5.38-1,7.11-.63.6-1.42,1.05-2.27,1.26s-1.71.33-2.48.27c-1.18-.1-2.26.59-2.82,1.63s-1.32,2.13-2.17,3.18-2.46,1.17-3.5.21c-2.68-2.46-5.2-3.42-6.58-5.95-.76-1.4-1.98-2.5-3.38-3.26-5.47-2.98-8.73-5.71-11.79-9.45-1.14-.93-1.8-2.18-2-3.72-.17-1.27-1.1-2.31-2.32-2.72-.89-.3-1.72-.74-2.48-1.36-.89-.73-1.48-1.74-1.76-2.85-.36-1.39-.42-2.8-.23-4.24.23-1.72-.85-2.57.8-3.11,3.73-1.2.55-4-2.06-5.5-.47-.27-.87-.64-1.19-1.08-.7-.96-2.44-1.36-1.24-3.2,1.02-1.56,3.01-2.18,4.77-1.55Z" fill="#b1d55c" stroke="#003b17" stroke-miterlimit="10"/>
    <path d="M355.9,850.45c.37-.69.92-1.3,1.7-1.81.42-.27.93-.39,1.42-.3,1.15.21,2.21.56,3.16,1.06.76.4,1.65.52,2.44.18,1.27-.55,2.58-.56,3.91-.1,1.13.39,1.85,1.53,1.74,2.72-.12,1.35-.66,2.78-1.49,4.27-.35.63-.88,1.15-1.54,1.46-.89.42-1.85.53-2.91.3-1.77-.59-3.03-1.51-3.65-2.83-.31-.67-.97-1.15-1.71-1.23-.86-.1-1.59-.33-2.2-.67-1.06-.59-1.45-1.98-.88-3.05Z" fill="#b1d55c" stroke="#003b17" stroke-miterlimit="10"/>
    <path d="M397.02,869.7c.91.35,1.67.85,2.25,1.53,1.03,1.18,1.08,2.93,0,4.07-.36.38-.78.69-1.26.95-.76.41-1.65.54-2.5.38-1.32-.24-2.32-.86-2.95-1.95-.16-.28-.25-.61-.28-.93-.12-1.37.14-2.51.93-3.34.96-1.01,2.5-1.2,3.8-.7Z" fill="#b1d55c" stroke="#003b17" stroke-miterlimit="10"/>
    <path d="M401.37,836.28c-.87,3.29-1.28,6.52-1.18,9.7.03.96,1.12,1.51,1.91.98,2.26-1.53,4.41-2.51,6.33-2.34,1.14.1,2.09.99,2.28,2.12.49,2.96-.64,5.2-3.18,6.83-.64.41-1.39.59-2.14.58-3.65-.08-7.08,2.64-10.49,5.68-.98.87-2.41,1.08-3.56.45-4.18-2.3-7.37-6.13-9.56-11.51-.14-.35-.27-.72-.36-1.08-1.09-4.32-.01-6.63,2.88-7.27,1.37-.3,2.6-1.02,3.41-2.15,2.85-3.98,5.64-6.99,8.24-7.14,2.33-.02,4.01.75,5.02,2.29.55.84.65,1.9.39,2.87Z" fill="#b1d55c" stroke="#003b17" stroke-miterlimit="10"/>
    <path d="M393.2,897.02c.66.96,1.66,1.82,3.21,2.49,2.18.95,3.68,2.99,3.82,5.36.63,10.36,2.77,17.01,6.08,20.82,2.37,2.73,6.79,2.21,8.5-.98s2.84-8.66,3.37-15.89c.13-1.76.56-3.49,1.25-5.11,4.11-9.8,7.27-19.99,9.27-30.66.45-2.4,1.44-4.65,2.8-6.68,5.3-7.9,8.72-16.51,9.62-26.08.29-3.07,1.14-6.07,2.42-8.87,4.9-10.67,9.5-21.42,5.49-34.21-.38-1.22-1.68-1.99-2.89-1.6-2.54.82-4.51,2.93-5.79,6.62-1.06,1.99-1.49,4.06-1.39,6.2.08,1.98-.19,3.95-1,5.77-2.88,6.49-6.14,15.82-9.48,25.69-.85,2.52-2.16,4.88-3.95,6.85-7.21,7.95-17.43,13.1-19.18,17.49-1.39,3.35-1.83,6.5-.32,9.23.55.99,1.82,1.27,2.82.74.44-.23.87-.39,1.28-.47.85-.17,1.63.56,1.55,1.42-.12,1.3-.14,2.59-.06,3.87.06.92-.72,1.65-1.63,1.55-3-.33-5.26,1.07-7.33,2.89-1.22,1.08-1.6,2.85-.88,4.31.24.49.54.99.89,1.48.64.9.06,2.15-1.04,2.29-2.44.31-4.75.7-6.37,1.5s-2.04,2.5-1.04,3.96Z" fill="#b1d55c" stroke="#003b17" stroke-miterlimit="10"/>
    <path d="M338.63,610.21c2.69-3.84,6.49-7.36,10.96-10.71.93-.69,2.29-.41,2.8.63,1.6,3.28,2.17,6.71,1.83,10.28-.12,1.29-.66,2.54-1.58,3.45-.52.52-1.08.94-1.66,1.29-1.68.99-3.74,1.13-5.63.63-2.12-.56-4.1-1.34-5.94-2.32-1.17-.63-1.54-2.16-.78-3.25Z" fill="#b1d55c" stroke="#003b17" stroke-miterlimit="10"/>
    <path d="M389.06,536.29c1.26,3.16,1.85,7.45,2.15,12.25.1,1.65,1.02,3.11,2.42,3.98,2.82,1.76,5.03,3.89,6.57,6.44.93,1.54.91,3.47-.02,5-.22.35-.45.69-.71,1.02-.5.64-.28,1.56.46,1.88,3.06,1.34,5.26,3.22,5.41,6.37.59,5.49-.52,9.7-3.37,12.61-1.07,1.09-1.64,2.58-1.59,4.1.08,2.39.29,4.69.67,6.85.44,2.51.11,5.12-1.18,7.31-1.43,2.42-3.63,4.1-6.53,5.12-2.81.53-5.59.72-8.34.54-2.16-.14-3.71-2.11-3.5-4.27.58-5.91.39-12.38-.23-19.16-.15-1.65.4-3.28,1.49-4.52,3.24-3.67,6.34-7.32,7.76-10.77.81-1.95.76-4.16-.04-6.11-1.92-4.7-4.93-9.32-8.64-13.9-1.1-1.36-1.74-3.06-1.69-4.81.11-4.07,1.71-7.66,4.73-10.79,1.27-1.32,3.49-.86,4.17.85Z" fill="#b1d55c" stroke="#003b17" stroke-miterlimit="10"/>
    <path d="M369.54,545.44c.63.68,1.19,1.38,1.7,2.1.76,1.07.76,2.52.02,3.61-.54.79-1.14,1.47-1.82,2.03s-1.7.69-2.53.32c-.68-.31-1.28-.73-1.81-1.28-1.36-1.42-1.4-3.67-.07-5.12.61-.66,1.26-1.28,1.96-1.85.76-.62,1.89-.53,2.56.19Z" fill="#b1d55c" stroke="#003b17" stroke-miterlimit="10"/>
    <path d="M447.62,139.13c-5.04,3.34-8.76,6.78-10.79,10.33-1.35,2.37-.98,5.42,1.1,7.19,1.68,1.43,3.82,2.2,6.41,2.3,3.45.14,6.35,2.54,7.3,5.86,1.27,4.42,3.11,6.77,5.7,6.43,4.05-.15,6.31-2.37,6.35-7.17.02-2.19.83-4.35,2.43-5.85,2.47-2.32,4.23-5.74,4.94-10.78.27-1.91,1.69-3.46,3.57-3.86,3.53-.75,6.73-1.59,9.01-2.65,3.41-1.59,3.32-6.46-.19-7.82-2.5-.97-5.44-.27-8.62,1.37-2.96,1.53-6.3,2.24-9.6,1.85-2.31-.28-4.69-.39-7.13-.37-3.73.04-7.37,1.12-10.48,3.18Z" fill="#b1d55c" stroke="#003b17" stroke-miterlimit="10"/>
    <path d="M535.24,317.25c.87,2.02,2.2,3.56,3.95,4.64s3.81,1.01,5.51.03c6.33-3.67,10.85-7.45,12.22-11.41.45-1.29-.21-2.75-1.51-3.17-4.33-1.41-8.67,1.01-13.02,4.93-.71.64-1.6,1.05-2.54,1.18-.89.13-1.78.26-2.66.38-1.61.23-2.58,1.93-1.93,3.42Z" fill="#b1d55c" stroke="#003b17" stroke-miterlimit="10"/>
    <path d="M45.79,692.27c-2.14,3.06-3.56,6.29-4.16,9.71-.29,1.62-.14,3.31.49,4.83.7,1.69,1.74,3.24,3.11,4.67s2.22,3.04,2.54,4.89c1.53,8.77,5.25,14.12,12.58,13.87,4.06.07,1.19-7.22-2.15-15.02-.48-1.13-.28-2.42.49-3.38.68-.85,1.13-1.71,1.4-2.6.4-1.33-.27-2.73-1.49-3.4-2.29-1.26-4.21-2.83-5.46-4.96-.44-.74-1.43-.9-2.11-.37-.02.01-.03.03-.05.04-1.26.99-3.1-.03-2.9-1.62.25-2,.18-4.05-.17-6.13-.18-1.04-1.51-1.39-2.12-.52Z" fill="#b1d55c" stroke="#003b17" stroke-miterlimit="10"/>
    <path d="M73.46,743.23c.38.17.76.36,1.15.56,2.42,1.29,3.44,4.22,2.53,6.8-.49,1.41-1.07,2.71-1.74,3.87-.95,1.63-3.2,1.98-4.59.7-.98-.9-1.89-1.88-2.71-2.96-1.14-1.5-1.54-3.46-1-5.26.13-.43.27-.86.43-1.28.9-2.35,3.63-3.45,5.93-2.43Z" fill="#b1d55c" stroke="#003b17" stroke-miterlimit="10"/>
    <path d="M69.83,773.22c6.59,4.63,8.47,9.38,3.76,14.3-1.83,1.91-2.7,4.57-2.19,7.17,1.97,10,.31,16.42-4.93,19.32-1.9,1.05-4.22,1.2-6.2.32-4.12-1.82-6.57-5.94-6.91-12.96-.09-1.76.75-3.44,2.19-4.46.15-.11.3-.21.44-.33,2.01-1.53,3.07-4,2.91-6.52-.18-2.97-.51-6.32,1.05-9.18.24-.44.45-.9.58-1.39.96-3.56,2.16-5.7,5.84-6.82,1.17-.36,2.45-.15,3.45.55Z" fill="#b1d55c" stroke="#003b17" stroke-miterlimit="10"/>
    <path d="M51.29,825.73c.47.08.93.16,1.39.23,1.15.19,2.28-.44,2.74-1.51,1.44-3.32-1.1-5.63-6.3-7.25-2.32-.72-4.89.01-6.45,1.88-5.38,6.44-8,14.4-9,23.27-.32,2.88-1.19,5.68-2.43,8.3l-6.09,12.8c-1.19,2.51-1.91,5.21-2.11,7.98-.57,7.83-.96,15.42,1.84,18.67.87,1.01,2.41,1.23,3.48.43,1.82-1.36,3.02-4.89,3.01-12.69,0-1.28.36-2.57,1.12-3.6,1.52-2.05,3.08-1.68,4.7,1.68.1.21.18.45.24.68.34,1.26.85,2.47,1.51,3.61.81,1.39,2.53,1.91,4,1.28.68-.29,1.34-.66,1.98-1.09,1.06-.73,2.37-.99,3.65-.9,5.11.35,8.54-1.01,10.26-4.12.38-.68.59-1.45.63-2.23.04-.66.01-1.3-.08-1.93-.26-1.73-2.05-2.81-3.69-2.21-1.06.39-2.14.88-3.24,1.46-1.93,1.01-4.36.42-5.59-1.38-4.72-6.88-6.81-15.5-6.69-25.55.03-2.5,1.2-4.82,3.17-6.36,2.28-1.78,4.05-3.72,5-5.9.66-1.07.85-2.23.7-3.46s1.01-2.25,2.25-2.05Z" fill="#b1d55c" stroke="#003b17" stroke-miterlimit="10"/>
    <path d="M56.3,911.95c.6.31,1.19.69,1.77,1.14,1.28.99,3.1.71,4.1-.56s2.09-2.29,3.41-2.85c1.65-.7,3.59,0,4.55,1.51.53.82.91,1.8,1.1,2.99.2,1.27.75,2.46,1.64,3.39,2.5,2.6,2.3,5.24-.37,7.91-.69.69-1.23,1.51-1.63,2.4-1.16,2.58-3.49,4.24-6.52,5.36-1.86.94-3.74,1.17-5.63.7-1.17-.29-2.2-.98-2.93-1.93-.04-.05-.08-.11-.13-.16-1.29-1.7-3.47-2.33-5.54-1.8-1.68.43-3.3.03-4.86-1.04-2.69-1.85-3.61-5.43-2.36-8.45.71-1.73,1.52-3.4,2.41-5.01,2.17-3.9,7.03-5.65,10.99-3.59Z" fill="#b1d55c" stroke="#003b17" stroke-miterlimit="10"/>
    <path d="M35.23,928.55c.67,1.68.72,4.16.43,7.04-.15,1.54.55,3.03,1.81,3.92,5.74,4.05,4.77,9.63-.71,16.23-1.69,2.03-4.78,2.27-6.7.44-1.53-1.46-2.83-3.86-3.98-6.87-.49-1.28-1.15-2.49-1.94-3.61-2.18-3.08-2.74-5.98-.65-8.57.51-.64.99-1.31,1.33-2.06,1.34-2.98,3.28-5.58,5.96-7.71,1.5-1.19,3.74-.58,4.45,1.19Z" fill="#b1d55c" stroke="#003b17" stroke-miterlimit="10"/>
    <path d="M60.79,951.47c5.54-5.58,12.34-9.2,20.39-10.85,1.63-.33,3.17.91,3.12,2.57-.07,2.15-1.68,4.37-4.25,6.63-.95.83-2.27,1.13-3.47.72-.66-.22-1.26-.39-1.81-.48-1.25-.22-2.49.42-3.17,1.49-1.15,1.82-2.58,3.04-4.27,3.68-2.73,1.26-4.97,1.32-6.59-.18-1.02-.95-.93-2.59.05-3.58Z" fill="#b1d55c" stroke="#003b17" stroke-miterlimit="10"/>
    <path d="M58.35,963.57c2.76-.66,5.52-.17,8.27,1.48,1.36.82,2.18,2.27,2.14,3.85-.06,2.28-1.37,3.82-3.49,4.9-.71.36-1.53.51-2.3.31-.81-.21-1.33-.7-1.58-1.46-.38-1.17-1.19-2.12-2.34-2.58-1.35-.53-2.09-1.93-2.46-3.86-.23-1.21.57-2.37,1.76-2.65Z" fill="#b1d55c" stroke="#003b17" stroke-miterlimit="10"/>
    <path d="M97.42,349.32c1.29,3.07,1.72,6.73,1.87,10.59.07,1.8-.97,3.53-2.66,4.13-.01,0-.03,0-.04.01-.53.18-.94.65-.91,1.21.03.5-.08,1.05-.27,1.65-.57,1.72-2.9,1.89-3.66.25-.82-1.76-.99-4.68-.4-8.93.45-4.14,1.22-7.5,2.6-9.38.92-1.26,2.87-.96,3.47.47Z" fill="#b1d55c" stroke="#003b17" stroke-miterlimit="10"/>
    <path d="M165.29,250.73c1.7.56,3.18,1.43,4.36,2.68.54.57.8,1.34.71,2.12-.19,1.79-1.3,3.39-2.99,4.87-.68.59-1.63.77-2.49.5-1.41-.45-1.54-1.67-2.54-2.67-2-2-1.35-4.13-.12-6.35.59-1.07,1.9-1.53,3.06-1.15Z" fill="#b1d55c" stroke="#003b17" stroke-miterlimit="10"/>
    <path d="M147.1,274.21c4.72-4.87,9.87-5.8,15.59-1.49.49.37.88.87,1.12,1.44.88,2.03.56,3.82-.71,5.43-.43.54-1.03.93-1.69,1.14-2.76.88-5.37,1.42-7.77,1.49-.2,0-.4.04-.6.08-2.73.57-4.78-.89-6.42-3.56-.88-1.44-.7-3.31.48-4.53Z" fill="#b1d55c" stroke="#003b17" stroke-miterlimit="10"/>
    <path d="M77.34,302.23c-1.38-1.99.27-4.55,3.08-7.33,1.54-1.53,2.68-3.43,3.21-5.54.03-.12.06-.23.1-.35.54-1.77,1.94-3.13,3.64-3.88,2.64-1.16,5.57-1.47,8.73-1.09,1.25.15,2.55-.12,3.55-.87.02-.01.04-.03.05-.04,1.69-1.31,1.53-3.94-.2-5.19-.84-.61-1.6-1.19-2.25-1.75-1.36-1.16-1.92-3.06-1.23-4.7.4-.94.96-1.86,1.72-2.78,1.11-1.34,1.32-3.25.33-4.68-.68-.98-.89-1.98-.4-3.01,1.84-2.63,4.38-4.04,7.84-3.86,1.34.07,2.69-.06,4.02-.28,2.99-.5,5.47-1.46,7.51-2.8,1.23-.81,2.27-1.87,3.11-3.08,2.72-3.94,6.09-6.66,10.47-7.51,2.34-.45,4.73.54,6.18,2.42,4.32,5.6,4,11.33,2.27,17.11-.65,2.15-3.13,3.17-5.1,2.1-1.31-.71-2.72-1.89-4.17-3.37-.75-.75-2.06-.46-2.38.55-.51,1.65-.55,3.37-.23,5.16.35,1.93,1.4,3.62,2.71,5.08,1.94,2.17,3.22,5.74,4,10.38.34,2.03-.06,4.12-1.14,5.87-2.68,4.36-5.69,9.41-8.87,14.81-.85,1.44-1.49,3-1.77,4.65-1.3,7.58-6.97,10.76-14.01,12.55-.98.25-1.96.53-2.89.92-.83.34-1.67.63-2.52.87-2.21.62-4.58-.2-6.03-1.98-.74-.91-1.39-1.91-1.95-2.99-.84-1.63-.6-3.58.6-4.97.05-.06.1-.11.14-.17,1.03-1.3.53-3.28-.94-4.03-1.35-.69-2.52-1.59-3.51-2.73-1.08-1.25-2.81-1.67-4.34-1.04-3.44,1.43-6.58.83-9.33-2.46Z" fill="#b1d55c" stroke="#003b17" stroke-miterlimit="10"/>
    <text transform="translate(730.33 627.44)" fill="#003b17" font-family="Anchor-Medium, Anchor" font-size="24" font-weight="500"><tspan x="0" y="0" letter-spacing="0em">K</tspan><tspan x="9.34" y="0">ØBENH</tspan><tspan x="58.3" y="0" letter-spacing="-.04em">A</tspan><tspan x="66.7" y="0" letter-spacing="0em">VN</tspan></text>
    <text transform="translate(525.23 534.95)" fill="#003b17" font-family="Anchor-Medium, Anchor" font-size="24" font-weight="500"><tspan x="0" y="0">HILLERØD</tspan></text>
    <text transform="translate(703.37 493.57)" font-family="Anchor-Medium, Anchor" font-size="24" font-weight="500"><tspan x="0" y="0">HELSINGØR</tspan></text>
    <text transform="translate(447.44 377.51)" font-family="Anchor-Medium, Anchor" font-size="24" font-weight="500"><tspan x="0" y="0">GREN</tspan><tspan x="38.3" y="0" letter-spacing="0em">A</tspan><tspan x="47.71" y="0">A</tspan></text>
    <text transform="translate(296.58 756.03)" font-family="Anchor-Medium, Anchor" font-size="24" font-weight="500"><tspan x="0" y="0">ODENSE</tspan></text>
    <text transform="translate(118.67 553.34)" font-family="Anchor-Medium, Anchor" font-size="24" font-weight="500"><tspan x="0" y="0">BIL</tspan><tspan x="22.9" y="0" letter-spacing="-.02em">L</tspan><tspan x="30.72" y="0">UND</tspan></text>
  </g>
  <g id="points">
    <path id="punkt8" d="M109.65,551.5l3.99,12.23c.49,1.49,1.88,2.5,3.45,2.5h12.91c1.55,0,2.19,1.99.94,2.89l-10.42,7.54c-1.28.92-1.81,2.57-1.32,4.07l3.98,12.2c.48,1.47-1.2,2.7-2.46,1.79l-10.46-7.57c-1.27-.92-2.98-.92-4.25,0l-10.46,7.57c-1.25.91-2.94-.32-2.46-1.79l3.98-12.2c.49-1.5-.05-3.14-1.32-4.07l-10.42-7.54c-1.26-.91-.61-2.89.94-2.89h12.91c1.57,0,2.96-1.01,3.45-2.5l3.99-12.23c.48-1.47,2.56-1.47,3.04,0Z" fill="#ff88d4" stroke="#9a0019" stroke-miterlimit="10"/>
    <path id="punkt7" d="M694.36,632.5l3.99,12.23c.49,1.49,1.88,2.5,3.45,2.5h12.91c1.55,0,2.19,1.99.94,2.89l-10.42,7.54c-1.28.92-1.81,2.57-1.32,4.07l3.98,12.2c.48,1.47-1.2,2.7-2.46,1.79l-10.46-7.57c-1.27-.92-2.98-.92-4.25,0l-10.46,7.57c-1.25.91-2.94-.32-2.46-1.79l3.98-12.2c.49-1.5-.05-3.14-1.32-4.07l-10.42-7.54c-1.26-.91-.61-2.89.94-2.89h12.91c1.57,0,2.96-1.01,3.45-2.5l3.99-12.23c.48-1.47,2.56-1.47,3.04,0Z" fill="#ff88d4" stroke="#9a0019" stroke-miterlimit="10"/>
    <path id="punkt6" d="M704.65,578.5l3.99,12.23c.49,1.49,1.88,2.5,3.45,2.5h12.91c1.55,0,2.19,1.99.94,2.89l-10.42,7.54c-1.28.92-1.81,2.57-1.32,4.07l3.98,12.2c.48,1.47-1.2,2.7-2.46,1.79l-10.46-7.57c-1.27-.92-2.98-.92-4.25,0l-10.46,7.57c-1.25.91-2.94-.32-2.46-1.79l3.98-12.2c.49-1.5-.05-3.14-1.32-4.07l-10.42-7.54c-1.26-.91-.61-2.89.94-2.89h12.91c1.57,0,2.96-1.01,3.45-2.5l3.99-12.23c.48-1.47,2.56-1.47,3.04,0Z" fill="#ff88d4" stroke="#9a0019" stroke-miterlimit="10"/>
    <path id="punkt5" d="M648.65,532.5l3.99,12.23c.49,1.49,1.88,2.5,3.45,2.5h12.91c1.55,0,2.19,1.99.94,2.89l-10.42,7.54c-1.28.92-1.81,2.57-1.32,4.07l3.98,12.2c.48,1.47-1.2,2.7-2.46,1.79l-10.46-7.57c-1.27-.92-2.98-.92-4.25,0l-10.46,7.57c-1.25.91-2.94-.32-2.46-1.79l3.98-12.2c.49-1.5-.05-3.14-1.32-4.07l-10.42-7.54c-1.26-.91-.61-2.89.94-2.89h12.91c1.57,0,2.96-1.01,3.45-2.5l3.99-12.23c.48-1.47,2.56-1.47,3.04,0Z" fill="#ff88d4" stroke="#9a0019" stroke-miterlimit="10"/>
    <path id="punkt4" d="M651.65,615.5l3.99,12.23c.49,1.49,1.88,2.5,3.45,2.5h12.91c1.55,0,2.19,1.99.94,2.89l-10.42,7.54c-1.28.92-1.81,2.57-1.32,4.07l3.98,12.2c.48,1.47-1.2,2.7-2.46,1.79l-10.46-7.57c-1.27-.92-2.98-.92-4.25,0l-10.46,7.57c-1.25.91-2.94-.32-2.46-1.79l3.98-12.2c.49-1.5-.05-3.14-1.32-4.07l-10.42-7.54c-1.26-.91-.61-2.89.94-2.89h12.91c1.57,0,2.96-1.01,3.45-2.5l3.99-12.23c.48-1.47,2.56-1.47,3.04,0Z" fill="#ff88d4" stroke="#9a0019" stroke-miterlimit="10"/>
    <path id="punkt3" d="M356.65,691.5l3.99,12.23c.49,1.49,1.88,2.5,3.45,2.5h12.91c1.55,0,2.19,1.99.94,2.89l-10.42,7.54c-1.28.92-1.81,2.57-1.32,4.07l3.98,12.2c.48,1.47-1.2,2.7-2.46,1.79l-10.46-7.57c-1.27-.92-2.98-.92-4.25,0l-10.46,7.57c-1.25.91-2.94-.32-2.46-1.79l3.98-12.2c.49-1.5-.05-3.14-1.32-4.07l-10.42-7.54c-1.26-.91-.61-2.89.94-2.89h12.91c1.57,0,2.96-1.01,3.45-2.5l3.99-12.23c.48-1.47,2.56-1.47,3.04,0Z" fill="#ff88d4" stroke="#9a0019" stroke-miterlimit="10"/>
    <path id="punkt2" d="M694.65,497.5l3.99,12.23c.49,1.49,1.88,2.5,3.45,2.5h12.91c1.55,0,2.19,1.99.94,2.89l-10.42,7.54c-1.28.92-1.81,2.57-1.32,4.07l3.98,12.2c.48,1.47-1.2,2.7-2.46,1.79l-10.46-7.57c-1.27-.92-2.98-.92-4.25,0l-10.46,7.57c-1.25.91-2.94-.32-2.46-1.79l3.98-12.2c.49-1.5-.05-3.14-1.32-4.07l-10.42-7.54c-1.26-.91-.61-2.89.94-2.89h12.91c1.57,0,2.96-1.01,3.45-2.5l3.99-12.23c.48-1.47,2.56-1.47,3.04,0Z" fill="#ff88d4" stroke="#9a0019" stroke-miterlimit="10"/>
    <path id="punkt1" d="M434.65,372.5l3.99,12.23c.49,1.49,1.88,2.5,3.45,2.5h12.91c1.55,0,2.19,1.99.94,2.89l-10.42,7.54c-1.28.92-1.81,2.57-1.32,4.07l3.98,12.2c.48,1.47-1.2,2.7-2.46,1.79l-10.46-7.57c-1.27-.92-2.98-.92-4.25,0l-10.46,7.57c-1.25.91-2.94-.32-2.46-1.79l3.98-12.2c.49-1.5-.05-3.14-1.32-4.07l-10.42-7.54c-1.26-.91-.61-2.89.94-2.89h12.91c1.57,0,2.96-1.01,3.45-2.5l3.99-12.23c.48-1.47,2.56-1.47,3.04,0Z" fill="#ff88d4" stroke="#9a0019" stroke-miterlimit="10"/>
  </g>
</svg>